<?xml version="1.0" encoding="UTF-8" standalone="no"?>
<!DOCTYPE svg PUBLIC "-//W3C//DTD SVG 1.1//EN"
"http://www.w3.org/Graphics/SVG/1.1/DTD/svg11.dtd">
<svg version="1.1" xmlns="http://www.w3.org/2000/svg" xmlns:xlink="http://www.w3.org/1999/xlink">
<defs>
<clipPath id="c0_4"><path d="M711.5,675.5l0,-179l179,0l0,179Z" /></clipPath>
<clipPath id="c1_4"><path d="M711.5,1003.5l0,-178l179,0l0,178Z" /></clipPath>
<clipPath id="c2_4"><path d="M711.5,1315.5l0,-179l179,0l0,179Z" /></clipPath>
<style type="text/css"><![CDATA[
.g3_4{
fill: #31909D;
}
.g1_4{
fill: #FFFFFF;
}
.g2_4{
fill: none;
stroke: #D9D9D9;
stroke-width: 4;
stroke-linecap: butt;
stroke-linejoin: round;
}
]]></style>
</defs>
<path fill-rule="evenodd" d="M0,0L2933,0l0,1650L0,1650L0,0Z" class="g1_4" />
<path fill-rule="evenodd" d="M0,0L2933,0l0,1650L0,1650L0,0Z" class="g1_4" />
<image x="0" y="0" width="2934" height="1651" xlink:href="img/1.png" />
<path d="M236,279l223,0l0,285l224,0" class="g2_4" />
<path d="M2698,1571l-702,0l0,-214l-702,0" class="g2_4" />
<g clip-path="url(#c0_4)">
<path fill-rule="evenodd" d="M801.5,508.4c-42.7,0,-77.3,34.7,-77.3,77.4c0,42.7,34.6,77.4,77.3,77.4c42.6,0,77.3,-34.7,77.3,-77.4c0,-42.7,-34.7,-77.4,-77.3,-77.4Zm0,166.9c-49.4,0,-89.6,-40.2,-89.6,-89.5c0,-49.4,40.2,-89.4,89.6,-89.4c49.3,0,89.5,40,89.5,89.4c0,49.3,-40.2,89.5,-89.5,89.5Z" class="g3_4" />
</g>
<path fill-rule="evenodd" d="M802.4,583.5c-9,0,-17.9,0,-26.9,0c-2.8,0,-4.1,1.2,-4.6,3.9c-0.4,3.5,-1.8,4.9,-5.3,5.4c-2.5,0.3,-4,1.7,-4,3.9c-0.2,5.2,-0.2,10.3,0,15.5c0,2.3,1.4,3.8,3.8,4.1c3.5,0.5,5.1,1.8,5.7,5.4c0.3,2.7,1.6,3.9,4.7,3.9c17.6,0,35.3,0,53,0c2.6,0,4.3,-1.4,4.8,-3.9c0.6,-3.7,1.6,-4.6,5.5,-5.4c2.2,-0.5,3.8,-1.8,3.8,-4.4c0,-4.8,0,-9.3,0,-13.9c0,-3.2,-1.2,-4.8,-4.5,-5.2c-2.9,-0.6,-4.2,-2,-4.8,-5.1c-0.7,-3,-2,-4.2,-5.2,-4.2c-8.7,0,-17.3,0,-26,0Zm47.7,48.7c-2.3,0.1,-4.6,0.1,-6.9,0.1c-28.3,0,-56.5,0,-84.8,0l-3.5,0l0,-55.7c1,0,2,-0.2,3,-0.2c29.7,0,59.3,0,88.9,0c1.1,0,2.2,0.3,3.3,0.5l0,55.3Z" class="g3_4" />
<path fill-rule="evenodd" d="M821.8,526.8c7.8,14.3,15.6,28.5,23.5,42.9l-16.3,0c1,-1.1,1.7,-2,2.4,-2.7c2,-1.6,2.6,-3.7,1.4,-6c-2.5,-4.3,-4.7,-8.4,-7,-12.7c-1.3,-2.1,-3.5,-2.9,-5.8,-2c-2.9,1.3,-5.2,0.5,-7.1,-1.8c-2,-2.4,-3.8,-2.9,-6.5,-1.4c-15.3,8.4,-30.6,16.8,-45.9,25.1c-1.7,0.9,-3.5,1.4,-5.3,1.7c-4.6,0.6,-6.9,2.9,-7,7.4c0,3.9,0,7.7,0,11.5c-0.2,0,-0.5,0.2,-0.8,0.2c-2.9,-5.4,-5.8,-10.7,-8.9,-16.5c27.8,-15.3,55.5,-30.4,83.3,-45.7Z" class="g3_4" />
<path fill-rule="evenodd" d="M809.4,569.6l-30.2,0c1.8,-6.5,10,-11,18.3,-10.3c6.1,0.5,11.2,4.8,11.9,10.3Z" class="g3_4" />
<path fill-rule="evenodd" d="M818.1,555.3c3.1,-0.1,5.7,2.5,5.7,5.5c0,3,-2.5,5.4,-5.4,5.5c-3,0,-5.6,-2.5,-5.6,-5.6c0,-2.9,2.4,-5.4,5.3,-5.4Z" class="g3_4" />
<path fill-rule="evenodd" d="M802.7,589.3c3.2,1.2,6.7,1.8,9.5,3.6c9.1,5.5,9.3,17,0.6,23.1c-6.9,4.9,-17.1,4.1,-23.1,-1.7c-6.1,-5.9,-5.8,-15,0.9,-20.3c3.5,-2.7,7.4,-4.3,11.9,-4c0,-0.3,0.2,-0.4,0.2,-0.7Z" class="g3_4" />
<path fill-rule="evenodd" d="M774.1,610c-3,0,-5.6,-2.6,-5.5,-5.5c0,-2.9,2.5,-5.5,5.4,-5.5c3,-0.1,5.6,2.5,5.6,5.5c0,2.9,-2.3,5.5,-5.5,5.5Z" class="g3_4" />
<path fill-rule="evenodd" d="M830,610c-2.7,0,-5.2,-2.7,-5.2,-5.5c0.2,-3,2.8,-5.6,5.7,-5.5c2.9,0,5.3,2.6,5.3,5.5c0.2,3.1,-2.4,5.5,-5.8,5.5Z" class="g3_4" />
<g clip-path="url(#c1_4)">
<path fill-rule="evenodd" d="M801.5,836.8c-42.7,0,-77.3,34.6,-77.3,77.4c0,42.6,34.6,77.3,77.3,77.3c42.6,0,77.3,-34.7,77.3,-77.3c0,-42.8,-34.7,-77.4,-77.3,-77.4Zm0,167c-49.4,0,-89.6,-40.2,-89.6,-89.6c0,-49.3,40.2,-89.5,89.6,-89.5c49.3,0,89.5,40.2,89.5,89.5c0,49.4,-40.2,89.6,-89.5,89.6Z" class="g3_4" />
</g>
<path fill-rule="evenodd" d="M809.1,933.8c0,-11.3,-9.2,-20.3,-20.2,-20.3c-11.4,-0.2,-20.4,9.1,-20.4,20.7c0.1,11,9.4,20.1,20.4,20.1c11.2,-0.2,20.2,-9.4,20.2,-20.5ZM793.2,895.1c0.3,0.8,0.6,1.2,0.6,1.9c0.6,5.8,4.3,8.5,9.7,9.7c1,0.3,2.4,0,3.3,-0.4c6.1,-2.9,6.1,-2.9,10.9,1.8c0.4,0.6,0.9,1.1,1.3,1.7c-0.1,0.6,-0.3,1.1,-0.6,1.5c-3.5,7.2,-3.6,7.2,-0.1,13.9c0.6,1.1,2.6,1.6,4,2.3c1.5,0.6,4.2,1.1,4.5,2.2c0.8,2.4,0.5,5.3,0.2,7.9c-0.2,0.8,-1.7,1.5,-2.8,1.7c-6.4,0.1,-6.8,5.6,-8.7,9.8c-0.4,1.2,0.9,3.5,1.9,4.8c1.9,2.6,1.6,4.8,-1,6.8c-1.3,0.9,-2.2,2.3,-3.2,3.5c-0.9,-0.3,-1.3,-0.5,-1.8,-0.8c-7,-3.5,-7,-3.6,-14.1,-0.1c-1.2,0.7,-1.6,2.9,-2.4,4.4c-0.8,1.4,-1.2,4,-2.1,4.3c-2.6,0.6,-5.4,0.3,-8,0c-0.7,0,-1.5,-1.9,-1.5,-2.9c-0.5,-6.3,-6,-6.8,-9.9,-8.7c-0.7,-0.3,-1.6,0.3,-2.3,0.6c-2.2,1,-4,2,-6.1,3c-0.5,-0.4,-1,-0.7,-1.4,-1.2c-5.2,-5,-5.1,-4.9,-2.2,-11.3c0.5,-1.1,0,-2.6,0,-4c0,-0.3,-0.3,-0.6,-0.4,-0.9c-0.8,-4.6,-3.7,-7,-8.3,-7.6c-2,-0.2,-2.6,-1.3,-2.3,-3.1c0,-0.1,0,-0.4,0,-0.6c-0.1,-6.3,-0.1,-6.3,5.7,-7.9c2,-0.6,3.5,-1.4,3.8,-3.7c0.2,-0.6,0.5,-1.2,0.8,-1.8c2.1,-2.9,1.7,-5.5,-0.3,-8.4c-0.8,-1.1,-1.9,-3.3,-1.4,-3.9c1.5,-2.3,3.7,-4.2,6,-5.8c0.6,-0.4,2.3,0.8,3.5,1.4c1.7,0.8,3.3,2.1,4.6,2c2.9,-0.6,5.8,-1.7,7.9,-3.4c1.4,-1,1.8,-3.6,2.3,-5.8c0.5,-2.3,1.7,-3.2,4,-2.9c1.9,0.2,3.8,0,5.9,0Z" class="g3_4" />
<path fill-rule="evenodd" d="M806.4,889.5c7.1,0.1,13.3,-5.8,13.4,-13.2C820,869.2,814,863,806.8,862.9c-7.6,0,-13.7,5.8,-13.7,13.1c-0.2,7.4,5.9,13.3,13.3,13.5Zm23,-23.7c-1.8,2.3,-4.4,4.1,-3.2,8.1c0.6,2,1.5,3,3.1,3.8c1.5,0.9,2.7,1.5,1.8,3.8c-0.8,1.9,-0.6,3.7,-3.5,3.8c-4.9,0.2,-7.3,3.9,-6,8.8c0.7,1.8,-0.1,2.6,-1.6,3.3c-1.6,0.8,-2.6,2.3,-4.8,0.5c-3.9,-3.5,-7.8,-2.9,-10.7,1.8c-1.5,2.5,-3,0.9,-4.7,0.8c-1.7,-0.2,-2.3,-0.9,-2.5,-2.6c-0.1,-5.2,-3.5,-8,-8.5,-6.6c-4.1,1.1,-3.5,-3.1,-5.4,-4.4c1.4,-2.6,4.2,-4,3.4,-8c-0.6,-3.6,-3.7,-3.9,-5.3,-5.9c0.1,-0.9,0.4,-1.7,0.4,-2.5c0.2,-2.6,1.4,-3.5,3.8,-3.6c4.3,-0.2,7.1,-3.9,5.7,-8c-0.8,-2.4,0.3,-3.3,2.1,-4.4c1.9,-1.2,3.1,-1.2,4.8,0.4c2.9,2.9,7.6,2.3,9.6,-1.3c1.2,-2.5,2.7,-2.3,4.9,-1.9c2.4,0.5,2.7,1.7,2.7,3.7c0.2,4,4,6.7,7.8,5.8c3.4,-0.8,3.4,-0.8,6.1,4.6Z" class="g3_4" />
<path fill-rule="evenodd" d="M848.4,905.4c0,-5.8,-4.8,-10.4,-10.7,-10.4c-5.8,0,-10.7,5,-10.6,10.7c0.2,5.8,5.2,10.7,10.9,10.5c5.8,0,10.4,-4.9,10.4,-10.8ZM824.1,890.8c1.2,-0.9,2.3,-1.6,3.5,-2.6c0,0.2,0,0.5,0,0.7c2,0.4,4,0.9,6.1,1.2c2,0.3,2.9,-1.2,3.8,-2.8c0.3,-0.9,1.7,-1.6,2.8,-1.6c1.4,0,2.7,0.1,3,2.2c0.6,4,3.5,5.7,7.1,4.3c3.3,-1.2,3.2,2,4.1,2.5c-0.5,2.6,-1.2,4.7,-1.1,6.8c0.2,1.3,1.7,2.3,2.6,3.6c0.6,0.9,1.7,1.6,1.7,2.7c0.1,1.5,-0.2,3.1,-2.5,3.4c-3.8,0.6,-5.3,3.3,-4.1,7c1.2,3.2,-1.8,3.2,-2.4,4c-2.8,-0.5,-4.9,-1.3,-7,-1.1c-1.1,0.2,-2.6,1.4,-3.1,2.6c-0.9,2,-2.4,2.1,-4,1.7c-0.9,-0.5,-2,-1.7,-2.3,-2.8c-0.7,-2.4,-3.6,-5.2,-5.6,-4.3c-3.4,1.7,-4.8,-0.1,-5.7,-1.6c0.6,-2.8,1.3,-4.9,1.4,-7.1c0.2,-2.1,-1.5,-2.9,-3.2,-3.9c-0.8,-0.5,-1.1,-2.2,-1.1,-3.4c0,-0.8,0.9,-1.8,1.7,-2c4.9,-1.7,6,-3.3,4.4,-8.4c0,-0.3,0,-0.6,-0.1,-1.1Z" class="g3_4" />
<g clip-path="url(#c2_4)">
<path fill-rule="evenodd" d="M801.5,1148.4c-42.7,0,-77.3,34.7,-77.3,77.3c0,42.7,34.6,77.3,77.3,77.3c42.6,0,77.3,-34.6,77.3,-77.3c0,-42.6,-34.7,-77.3,-77.3,-77.3Zm0,166.9c-49.4,0,-89.6,-40.2,-89.6,-89.6c0,-49.3,40.2,-89.5,89.6,-89.5c49.3,0,89.5,40.2,89.5,89.5c0,49.4,-40.2,89.6,-89.5,89.6Z" class="g3_4" />
</g>
<path fill-rule="evenodd" d="M854.3,1274.2l-46.4,0c4.7,-13.8,9.5,-27.2,14,-41.1c6.2,2.7,12.1,2.9,18.2,-0.2c4.8,13.8,9.5,27.4,14.2,41.3Z" class="g3_4" />
<path fill-rule="evenodd" d="M770.9,1198.2c1.7,2.2,3.2,4,4.9,6.1c-1.8,1.4,-3.7,3,-5.6,4.3c-1.6,1.1,-2,1.9,-1.6,3.8c2.3,9.4,-3.8,18.1,-13.4,19.1c-0.9,0,-2,-0.6,-2.9,-1c0.4,-0.9,0.4,-2,1.2,-2.6c2.6,-2.8,4.9,-5.5,5.3,-9.3c0.5,-4.2,-2.1,-7.4,-6.2,-7.8c-3.8,-0.3,-7,0.9,-10.1,2.9c-0.8,0.4,-2,0.3,-3.1,0.3c0,-0.9,-0.3,-2.2,0,-2.9c3.1,-8.9,13.5,-12.9,21.9,-8.3c1.7,0.9,2.6,0.9,4,-0.1c1.8,-1.7,3.8,-2.9,5.6,-4.5Z" class="g3_4" />
<path fill-rule="evenodd" d="M818.7,1215.7c0.2,7,5.5,12.3,12.4,12.3c6.9,0,12.4,-5.5,12.4,-12.3c0,-6.8,-5.7,-12.4,-12.4,-12.4c-6.9,-0.2,-12.4,5.6,-12.4,12.4Zm12.6,15.5c-8.7,0.2,-15.9,-6.7,-15.9,-15.4c0,-8.5,6.7,-15.7,15.3,-15.9c8.8,0,16,6.7,16.1,15.4c0.2,8.9,-6.7,15.9,-15.5,15.9Z" class="g3_4" />
<path fill-rule="evenodd" d="M794.6,1204c1.8,-3.6,3.4,-6.7,5,-10.2c6.2,2,12.6,4.1,19.4,6.6c-4.2,4.1,-7.1,8.5,-7.4,14.9c-6,-3.9,-11.7,-7.7,-17,-11.3Z" class="g3_4" />
<path fill-rule="evenodd" d="M792.3,1192.7c0.2,-4.1,-3.4,-7.8,-7.6,-7.8c-4.3,0,-7.7,3.4,-7.8,7.7c0,4.3,3.5,7.9,7.8,7.9c4.1,0,7.6,-3.6,7.6,-7.8Zm-7.8,10.4c-5.9,0,-10.5,-4.7,-10.5,-10.7c0.1,-5.8,5,-10.4,11,-10.4c5.6,0.2,10.2,4.9,10.2,10.7c0,6,-4.7,10.6,-10.7,10.4Z" class="g3_4" />
<path fill-rule="evenodd" d="M831,1224.1c-4.9,0,-8.4,-3.9,-8.4,-8.6c0.1,-4.7,4.1,-8.6,8.7,-8.4c4.7,0.2,8.4,4.1,8.4,8.9c0,4.5,-4,8.2,-8.7,8.1Z" class="g3_4" />
<path fill-rule="evenodd" d="M784.7,1187.8c2.7,0,4.9,2,4.9,4.8c0.1,2.7,-2.2,5,-4.9,5c-2.8,0,-5.1,-2.1,-5.1,-4.7c0,-2.9,2.2,-5.1,5.1,-5.1Z" class="g3_4" />
</svg>