<?xml version="1.0" encoding="UTF-8" standalone="no"?>
<!DOCTYPE svg PUBLIC "-//W3C//DTD SVG 1.1//EN"
"http://www.w3.org/Graphics/SVG/1.1/DTD/svg11.dtd">
<svg version="1.1" xmlns="http://www.w3.org/2000/svg" xmlns:xlink="http://www.w3.org/1999/xlink">
<defs>
<clipPath id="c0_28"><path d="M1347.5,594.5l0,-209l209,0l0,209Z" /></clipPath>
<clipPath id="c1_28"><path d="M307.5,1572.5l0,-116l116,0l0,116Z" /></clipPath>
<clipPath id="c2_28"><path d="M484.5,1572.5l0,-120l120,0l0,120Z" /></clipPath>
<style type="text/css"><![CDATA[
.g3_28{
fill: #31909D;
}
.g1_28{
fill: #FFFFFF;
}
.g2_28{
fill: none;
stroke: #D9D9D9;
stroke-width: 4;
stroke-linecap: butt;
stroke-linejoin: round;
}
]]></style>
</defs>
<path fill-rule="evenodd" d="M0,0L2933,0l0,1650L0,1650L0,0Z" class="g1_28" />
<path fill-rule="evenodd" d="M0,0L2933,0l0,1650L0,1650L0,0Z" class="g1_28" />
<image x="0" y="0" width="2934" height="1651" xlink:href="img/1.png" />
<path d="M236,290l1216,0l0,391l1420,0" class="g2_28" />
<path d="M2705,1572l-1232,0l0,-170l-1166,0" class="g2_28" />
<g clip-path="url(#c0_28)">
<path fill-rule="evenodd" d="M1452.9,398.8c-50.2,0,-91,40.7,-91,90.9c0,50.4,40.8,91.2,91,91.2c50.3,0,91.1,-40.8,91.1,-91.2c0,-50.2,-40.8,-90.9,-91.1,-90.9Zm0,196.6c-58,0,-105.4,-47.5,-105.4,-105.7c0,-58.1,47.4,-105.3,105.4,-105.3c58.2,0,105.6,47.2,105.6,105.3c0,58.2,-47.4,105.7,-105.6,105.7Z" class="g3_28" />
</g>
<path fill-rule="evenodd" d="M1453.2,534.6c-4.4,7.8,-4.3,10.4,-0.1,13.7c5.5,-4.4,0.7,-8.8,0.1,-13.7Zm-44,-41.3c8.4,4.6,11.8,11.5,12.4,20.3c0.6,7.1,5.2,9.1,11,5.1c1.1,-0.6,2,-1.4,3.5,-2.3c3.1,5.5,6.1,11,9.2,16.5c0.4,-0.2,0.9,-0.2,1.4,-0.3c-0.4,-4,-0.5,-8,-1,-11.6l13.8,0l0,11.7c0.4,0,0.9,0.2,1.4,0.3c2.9,-5.5,5.6,-10.8,8.7,-16.5c1.3,0.8,2.6,1.4,3.6,2.2c5.2,3.6,10.4,1.5,10.9,-4.9c0.6,-9.2,4.3,-16.1,12.8,-20.8c3.7,6.7,7.3,13.5,11.5,20.8c4.1,-7.3,7.8,-13.8,11.4,-20.2c9.4,4.5,15.3,17,12.7,25.8c-0.6,1.7,-2.3,3.1,-3.8,4.2c-12.2,7.6,-24.9,8.4,-37.7,1.6c-3.9,-1.9,-6.5,-1.6,-8.3,0.5c1.1,7.5,2.5,14.4,3.1,21.2c0.1,1.9,-1.1,4.6,-2.6,5.8c-17,12.7,-44,12.7,-60.8,0c-1.4,-1.2,-2.6,-3.6,-2.5,-5.4c0.6,-6.8,1.8,-13.6,3.1,-21.4c-1.9,-1.9,-4.5,-2.6,-8.7,-0.3c-12.9,6.7,-25.5,5.6,-37.9,-2.3c-2.5,-1.9,-3.5,-3.9,-3.4,-7.1c0.2,-9.9,3.5,-18,13,-23.2c3.7,6.6,7.3,13.3,11.5,20.8c4.1,-7.2,7.7,-13.6,11.7,-20.5Z" class="g3_28" />
<path fill-rule="evenodd" d="M1472.2,498.8c0.1,10.9,-8.3,19.3,-19,19.4c-11.6,0.2,-19.8,-8.4,-19.8,-20.5c0,-9.4,9.1,-18,19.4,-18.1c11,-0.2,19.4,8.4,19.4,19.2Z" class="g3_28" />
<path fill-rule="evenodd" d="M1382.9,479.7c0.2,-8.7,6.2,-14.8,14.7,-14.6c8.3,0,14.2,6.1,14.1,14.3c-0.2,9.8,-6.9,17.9,-14.7,17.7c-7.3,-0.1,-14.1,-8.5,-14.1,-17.4Z" class="g3_28" />
<path fill-rule="evenodd" d="M1494,479.4c0.5,-9,6.4,-14.8,15.1,-14.5c8.3,0.5,13.9,6.9,13.6,15.7c-0.6,8.9,-7.6,16.8,-15.1,16.5c-7.2,-0.3,-13.9,-9,-13.6,-17.7Z" class="g3_28" />
<path fill-rule="evenodd" d="M1451.1,433.4l0,14.9l-20,0c0.6,-4.6,1.2,-8.9,2.1,-13c0.2,-0.6,1.4,-1.9,2.1,-1.9c5.2,0,10.4,0,15.8,0Z" class="g3_28" />
<path fill-rule="evenodd" d="M1450.9,468.3c-5.3,0,-10.4,0.3,-15.2,-0.2c-1,0,-2.5,-1.4,-2.6,-2.4c-1,-3.9,-1.4,-8,-2.2,-12.4l20,0l0,15Z" class="g3_28" />
<path fill-rule="evenodd" d="M1456.1,468.1l0,-14.8l18.4,0c-0.7,5,-1.3,9.9,-2,14.8l-16.4,0Z" class="g3_28" />
<path fill-rule="evenodd" d="M1474.6,448.6l-18.3,0l0,-15c4.7,0,9.3,-0.2,14,0.1c1,0.2,2.2,1.4,2.3,2.3c0.9,4,1.4,8,2,12.6Z" class="g3_28" />
<path fill-rule="evenodd" d="M1426.5,448.3l-12.7,0c-1.1,-11.5,2.5,-15.5,14.7,-14.9c-0.5,2.5,-0.6,4.8,-1.1,7.2c-0.3,2.5,-0.6,4.7,-0.9,7.7Z" class="g3_28" />
<path fill-rule="evenodd" d="M1492,453.3c0.5,12.8,-3,16.5,-14.8,14.7c0.3,-2.3,0.8,-4.9,1.1,-7.4c0.3,-2.3,0.6,-4.6,1,-7.3l12.7,0Z" class="g3_28" />
<path fill-rule="evenodd" d="M1450.9,413.3l0,15.4l-15.1,0c1.4,-10.7,6.7,-16.4,15.1,-15.4Z" class="g3_28" />
<path fill-rule="evenodd" d="M1426.3,453.1c0.8,5.1,1.6,9.8,2.2,14.6c-10.9,2.4,-14.7,-1.3,-15.2,-14.6l13,0Z" class="g3_28" />
<path fill-rule="evenodd" d="M1477.4,434.2c11.6,-1.8,15.1,1.7,14.6,14.4l-12.7,0c-0.6,-4.9,-1.3,-9.7,-1.9,-14.4Z" class="g3_28" />
<path fill-rule="evenodd" d="M1470.9,428.8l-14.6,0l0,-15.5c4.7,-0.3,8.4,0.6,10.1,5.5c1,3.3,2.9,6.4,4.5,10Z" class="g3_28" />
<path fill-rule="evenodd" d="M1435.2,417.4c-1.4,3,-2.6,6.4,-4.3,9.3c-0.4,1.2,-2.4,1.8,-4,2.1c-1.6,0.5,-3.6,0,-5.6,0c-0.2,-0.3,-0.5,-0.7,-0.8,-1c4.6,-3.8,9.2,-7.7,13.6,-11.3c0.3,0.1,0.8,0.6,1.1,0.9Z" class="g3_28" />
<path fill-rule="evenodd" d="M1485.2,427.6c-8.6,2.3,-8.6,2.3,-13.6,-11c4.5,3.7,9.1,7.4,13.6,11Z" class="g3_28" />
<path fill-rule="evenodd" d="M1484.8,474.1c-2.9,2.6,-5.8,5.3,-9,7.8c-0.6,0.4,-2.7,0,-3.2,-0.8c-1,-2.3,3.2,-8.3,6,-8.3c1.8,-0.1,3.7,-0.1,5.5,-0.1c0.3,0.6,0.4,0.9,0.7,1.4Z" class="g3_28" />
<path fill-rule="evenodd" d="M1420.2,473.5c9.3,-1.7,10.6,-1,12.4,5.5c0.1,0.9,0,2.1,-0.5,2.9c-0.3,0.3,-1.8,0.1,-2.3,-0.2c-3.2,-2.6,-6.1,-5.2,-9.6,-8.2Z" class="g3_28" />
<path fill-rule="evenodd" d="M1470.3,473.2c-0.6,1.5,-1,2.6,-1.5,3.9c-2.7,-1.2,-5.3,-2.4,-8.9,-3.9l10.4,0Z" class="g3_28" />
<path fill-rule="evenodd" d="M1434.9,472.8l10.7,0c-3.1,1.6,-5.7,2.8,-8.4,4.2c-0.6,-1.2,-1.2,-2.3,-2.3,-4.2Z" class="g3_28" />
<image x="1468" y="728" width="446" height="284" xlink:href="img/2.png" />
<image x="865" y="1075" width="421" height="268" xlink:href="img/3.png" />
<image x="275" y="728" width="468" height="298" xlink:href="img/4.png" />
<image x="307" y="1056" width="378" height="241" xlink:href="img/5.png" />
<image x="1446" y="1025" width="468" height="297" xlink:href="img/6.png" />
<image x="2073" y="1056" width="421" height="268" xlink:href="img/7.png" />
<image x="2073" y="728" width="467" height="298" xlink:href="img/8.png" />
<image x="854" y="681" width="467" height="298" xlink:href="img/9.png" />
<g clip-path="url(#c1_28)">
<path fill-rule="evenodd" d="M366.2,1463.8c-28.1,0,-50.9,22.6,-50.9,50.5c0,28.1,22.8,50.9,50.9,50.9c28,0,50.7,-22.8,50.7,-50.9c0,-27.9,-22.7,-50.5,-50.7,-50.5Zm0,109.4c-32.4,0,-58.8,-26.5,-58.8,-58.9c0,-32.4,26.4,-58.6,58.8,-58.6c32.4,0,58.7,26.2,58.7,58.6c0,32.4,-26.3,58.9,-58.7,58.9Z" class="g3_28" />
</g>
<path fill-rule="evenodd" d="M343,1517.4l-2.5,0l0,3.5l2.5,0l0,-3.5Zm-0.2,-14.5l-2.3,0l0,3.6l2.3,0l0,-3.6Zm-2.3,10.8l2.5,0l0,-3.6l-2.5,0l0,3.6Zm5.4,7.2l2.6,0l0,-3.7l-2.6,0l0,3.7Zm2.6,-10.7l-2.5,0l0,3.5l2.5,0l0,-3.5Zm0,-7.3l-2.6,0l0,3.6l2.6,0l0,-3.6Zm39.6,16.3l2.7,0l0,-4.1l-2.7,0l0,4.1Zm0,-16.5l2.7,0l0,-4.3l-2.7,0l0,4.3Zm0,8.3l2.7,0l0,-4.3l-2.7,0l0,4.3Zm-6.5,-8.3l2.9,0l0,-4.3l-2.9,0l0,4.3Zm0,8.3l2.9,0l0,-4.3l-2.9,0l0,4.3Zm0,8.2l2.9,0l0,-4.1l-2.9,0l0,4.1ZM362.5,1500l-3.6,0l0,5.3l3.6,0l0,-5.3Zm0,-10.6l-3.6,0l0,5.2l3.6,0l0,-5.2Zm-3.6,21.3c0,1.5,0,3.2,0,4.6c0,0.3,0.4,0.9,0.7,0.7c1.1,-0.1,2.5,0.8,2.8,-0.6c0.4,-1.5,0.1,-3.2,0.1,-4.7l-3.6,0Zm11.7,0l-3.8,0l0,5.3l3.8,0l0,-5.3Zm-3.8,-5.4l3.8,0l0,-5.3l-3.8,0l0,5.3Zm0,-10.7l3.8,0l0,-5.3l-3.8,0l0,5.3Zm9,-10.7l0,46.5l2.2,0l0,-36.2l16.9,0l0,36.2l2.6,0l0,-4.3c4.2,1.1,8.1,2,12.1,3.1c-5,16.1,-21.1,30.8,-42.3,31.3c-22.5,0.6,-39.3,-14.5,-44.6,-31.3c3.9,-1.1,8.1,-2,12.3,-3.1l0,4.3l2.3,0l0,-31.2l14.7,0l0,31.2l2.1,0l0,-46.5l21.7,0Z" class="g3_28" />
<path fill-rule="evenodd" d="M569.7,1521.4c-2.1,-1.6,-4.7,-2.5,-7.2,-3.9c-1.8,-0.9,-3.8,-1.6,-5.9,-2.6c-2.5,4.9,-4.8,9.8,-7.2,14.9c-0.2,-0.5,-0.5,-1,-0.6,-1.6c-0.9,-2.4,-1.9,-4.9,-2.8,-7.4c-0.1,-0.7,-0.4,-0.7,-1,-0.5c-1,0,-2,0,-2.9,0c-0.7,-0.2,-1,0,-1.1,0.6c-0.9,2.8,-2.2,5.5,-3.1,8.3c-0.1,0.3,-0.3,0.6,-0.6,1.2c-2.4,-5.2,-4.9,-10.3,-7.3,-15.3c-1.2,0.5,-2.5,1.1,-3.5,1.5c-2.8,1.4,-5.5,2.5,-8.1,4c-3.5,2.1,-6.1,5,-7.1,8.6c-0.3,5.5,-0.4,10.8,-0.6,16.3l32.7,0l32.6,0c0.1,-4.3,0.1,-8.4,0.1,-12.5c0,-0.2,0.2,-0.3,0.3,-0.5c-0.4,-4.6,-2.7,-8.2,-6.7,-11.1Z" class="g1_28" />
<path fill-rule="evenodd" d="M526.5,1490c0.3,-0.6,0.3,-1,0.4,-1.5c1.3,-6.1,4.9,-9.9,10.7,-11.6c4.8,-1.4,9.3,-1.2,13.8,0.8c4.4,1.8,7.2,5.2,8.4,9.7c0.3,1,0.4,1.7,0.6,2.3c0.6,-0.3,1.1,-0.7,1.7,-1c0.7,-0.2,0.7,-0.8,0.6,-1.6c-1.4,-5.8,-4.8,-10.3,-10.3,-13.3c-10.8,-5.6,-24.1,0,-27.8,11.8c-0.6,2.2,-0.6,2.2,1.3,3.5c0.1,0.3,0.3,0.5,0.6,0.9Zm33.1,8.4c-0.9,3.7,-2.6,7.2,-5,10.3c-3.2,4,-7.2,6.6,-12.5,5.9c-4.2,-0.4,-7.2,-2.9,-9.8,-6.1c-2.5,-2.9,-4,-6.2,-4.9,-9.9c-0.2,0,-0.2,-0.2,-0.3,-0.5c-0.3,1.6,-0.6,2.9,-2.2,3.6c-0.1,0.1,-0.1,0.6,0,0.9c1.3,4.1,4,7.5,7.7,10.1c0.3,0.1,0.9,0.1,1.4,0.1c1.3,0,2.4,0.6,3.2,1.8c0.7,1.4,0,2.8,-1.6,2.8c-1.3,0.1,-2.6,-0.2,-3.2,-1.4c-0.6,-1.4,-2,-2.1,-2.9,-3c-3,-2.6,-5.3,-5.8,-6.7,-9.7c-0.1,-0.7,-0.6,-1.6,-1.4,-2.3c-0.6,-0.6,-1,-1.6,-1,-2.6c-0.2,-2.2,-0.2,-4.4,0,-6.5c0,-0.9,0.4,-1.7,0.7,-2.3c0.2,-0.9,0.8,-1.5,0.9,-2.3c1.6,-8.9,9.4,-16.4,18.4,-17.4c8.1,-1.1,14.9,1.7,20.1,8.1c2.3,2.7,3.9,6.1,4.5,9.6c0,0.8,0.4,1.2,0.7,1.8c0.3,0.6,0.8,1.3,0.8,2c0.2,2.5,0.3,5.1,0,7.5c-0.2,2.6,-3.1,4,-5.2,2.4c-0.8,-0.7,-1.1,-1.9,-1.7,-2.9Z" class="g1_28" />
<g clip-path="url(#c2_28)">
<path fill-rule="evenodd" d="M545.3,1460.3c-29.1,0,-52.4,23.5,-52.4,52.4c0,29,23.3,52.4,52.4,52.4c28.8,0,52.4,-23.4,52.4,-52.4c0,-28.9,-23.6,-52.4,-52.4,-52.4Zm0,113.2c-33.5,0,-60.7,-27.4,-60.7,-60.8c0,-33.5,27.2,-60.5,60.7,-60.5c33.4,0,60.6,27,60.6,60.5c0,33.4,-27.2,60.8,-60.6,60.8Z" class="g1_28" />
</g>
</svg>