<?xml version="1.0" encoding="UTF-8" standalone="no"?>
<!DOCTYPE svg PUBLIC "-//W3C//DTD SVG 1.1//EN"
"http://www.w3.org/Graphics/SVG/1.1/DTD/svg11.dtd">
<svg version="1.1" xmlns="http://www.w3.org/2000/svg" xmlns:xlink="http://www.w3.org/1999/xlink">
<defs>
<clipPath id="c0_29"><path d="M1247.5,1572.5l0,-116l117,0l0,116Z" /></clipPath>
<clipPath id="c1_29"><path d="M1443.5,1578.5l0,-121l121,0l0,121Z" /></clipPath>
<style type="text/css"><![CDATA[
.g2_29{
fill: #747474;
}
.g1_29{
fill: #FFFFFF;
}
]]></style>
</defs>
<path fill-rule="evenodd" d="M0,0L2933,0l0,1650L0,1650L0,0Z" class="g1_29" />
<path fill-rule="evenodd" d="M0,0L2933,0l0,1650L0,1650L0,0Z" class="g1_29" />
<image x="0" y="0" width="2934" height="1650" xlink:href="img/1.png" />
<g clip-path="url(#c0_29)">
<path fill-rule="evenodd" d="M1306.6,1463.8c-28.2,0,-50.9,22.6,-50.9,50.5c0,28.1,22.7,50.9,50.9,50.9c27.9,0,50.5,-22.8,50.5,-50.9c0,-27.9,-22.6,-50.5,-50.5,-50.5Zm0,109.4c-32.4,0,-58.9,-26.5,-58.9,-58.9c0,-32.4,26.5,-58.6,58.9,-58.6c32.3,0,58.6,26.2,58.6,58.6c0,32.4,-26.3,58.9,-58.6,58.9Z" class="g2_29" />
</g>
<path fill-rule="evenodd" d="M1283.3,1517.4l-2.6,0l0,3.5l2.6,0l0,-3.5Zm-0.1,-14.5l-2.5,0l0,3.6l2.5,0l0,-3.6Zm-2.3,10.8l2.4,0l0,-3.6l-2.4,0l0,3.6Zm5.3,7.2l2.6,0l0,-3.7l-2.6,0l0,3.7Zm2.6,-10.7l-2.6,0l0,3.5l2.6,0l0,-3.5Zm0,-7.3l-2.6,0l0,3.6l2.6,0l0,-3.6Zm39.6,16.3l2.8,0l0,-4.1l-2.8,0l0,4.1Zm-0.1,-16.5l2.9,0l0,-4.3l-2.9,0l0,4.3Zm0.1,8.3l2.8,0l0,-4.3l-2.8,0l0,4.3Zm-6.4,-8.3l2.9,0l0,-4.3l-2.9,0l0,4.3Zm0,8.3l2.9,0l0,-4.3l-2.9,0l0,4.3Zm0,8.2l2.9,0l0,-4.1l-2.9,0l0,4.1ZM1302.7,1500l-3.5,0l0,5.3l3.5,0l0,-5.3Zm0,-10.6l-3.5,0l0,5.2l3.5,0l0,-5.2Zm-3.5,21.3c0,1.5,-0.1,3.2,0,4.6c0,0.3,0.5,0.9,0.8,0.7c1.1,-0.1,2.4,0.8,2.7,-0.6c0.5,-1.5,0,-3.2,0,-4.7l-3.5,0Zm11.8,0l-3.8,0l0,5.3l3.8,0l0,-5.3Zm-3.8,-5.4l3.8,0l0,-5.3l-3.8,0l0,5.3Zm0,-10.7l3.8,0l0,-5.3l-3.8,0l0,5.3Zm9,-10.7l0,46.5l2.1,0l0,-36.2l17,0l0,36.2l2.6,0l0,-4.3c4.1,1.1,8.1,2,12,3.1c-5,16.1,-21,30.8,-42.3,31.3c-22.4,0.6,-39.2,-14.5,-44.6,-31.3c4,-1.1,8.1,-2,12.4,-3.1l0,4.3l2.3,0l0,-31.2l14.6,0l0,31.2l2.2,0l0,-46.5l21.7,0Z" class="g2_29" />
<g clip-path="url(#c1_29)">
<path fill-rule="evenodd" d="M1504.4,1464.7c-29.2,0,-52.9,23.7,-52.9,52.8c0,29.2,23.7,52.9,52.9,52.9c29.2,0,52.9,-23.7,52.9,-52.9c0,-29.1,-23.7,-52.8,-52.9,-52.8Zm0,114c-33.8,0,-61.1,-27.5,-61.1,-61.2c0,-33.7,27.3,-61.1,61.1,-61.1c33.8,0,61.3,27.4,61.3,61.1c0,33.7,-27.5,61.2,-61.3,61.2Z" class="g2_29" />
</g>
<path fill-rule="evenodd" d="M1504.6,1543.5c-2.6,4.4,-2.5,6,0,8c3,-2.6,0.3,-5.2,0,-8Zm-25.6,-24c4.9,2.8,6.9,6.8,7.2,11.8c0.3,4.1,3.1,5.3,6.4,3c0.7,-0.4,1.3,-0.9,2,-1.3c1.9,3.2,3.5,6.2,5.4,9.4c0.3,0,0.4,0,0.7,-0.1c-0.1,-2.3,-0.3,-4.6,-0.4,-6.7l7.9,0l0,6.8c0.3,0,0.5,0,0.8,0.2c1.7,-3.2,3.2,-6.3,5,-9.6c0.8,0.4,1.6,0.7,2.2,1.3c3,2.2,5.9,0.8,6.2,-2.9c0.3,-5.3,2.6,-9.3,7.5,-12c2.2,3.8,4.3,7.8,6.6,12c2.4,-4.2,4.6,-7.9,6.7,-11.7c5.4,2.6,8.9,9.9,7.3,15.1c-0.3,0.9,-1.3,1.7,-2.2,2.3c-7.1,4.4,-14.4,4.9,-21.9,1.1c-2.1,-1.3,-3.7,-1.1,-4.7,0.1c0.6,4.3,1.3,8.4,1.6,12.4c0.2,1.1,-0.6,2.6,-1.3,3.4c-9.8,7.3,-25.5,7.3,-35.3,0c-0.8,-0.8,-1.5,-2.2,-1.4,-3.3c0.3,-3.9,1.1,-7.7,1.7,-12.3c-0.9,-1.1,-2.6,-1.6,-5.1,-0.3c-7.4,3.9,-14.8,3.3,-21.8,-1.3c-1.5,-1,-2.1,-2.2,-2,-4.1c0.2,-5.8,2,-10.4,7.5,-13.4c2.1,3.8,4.3,7.6,6.7,12c2.3,-4.1,4.4,-7.9,6.7,-11.9Z" class="g2_29" />
<path fill-rule="evenodd" d="M1515.6,1522.7c0.1,6.3,-4.8,11.3,-11,11.3c-6.8,0,-11.5,-4.8,-11.5,-11.9c0,-5.5,5.2,-10.4,11.1,-10.5c6.5,0,11.4,4.9,11.4,11.1Z" class="g2_29" />
<path fill-rule="evenodd" d="M1463.9,1511.7c0,-5,3.5,-8.7,8.4,-8.5c4.8,0,8.3,3.5,8.3,8.4c-0.2,5.6,-4.2,10.4,-8.6,10.2c-4.3,-0.1,-8.1,-5,-8.1,-10.1Z" class="g2_29" />
<path fill-rule="evenodd" d="M1528.2,1511.6c0.3,-5.4,3.9,-8.7,8.7,-8.6c4.8,0.3,8.1,4.2,8,9.2c-0.3,5.2,-4.4,9.8,-8.7,9.6c-4.3,-0.1,-8.1,-5.2,-8,-10.2Z" class="g2_29" />
<path fill-rule="evenodd" d="M1503.3,1484.8l0,8.8l-11.6,0c0.3,-2.8,0.8,-5.2,1.2,-7.7c0.2,-0.4,1,-1.1,1.4,-1.1c2.9,0,6,0,9,0Z" class="g2_29" />
<path fill-rule="evenodd" d="M1503.3,1505c-3.2,0,-6.1,0.2,-8.8,0c-0.6,0,-1.6,-0.7,-1.7,-1.4c-0.5,-2.3,-0.8,-4.5,-1.1,-7.3l11.6,0l0,8.7Z" class="g2_29" />
<path fill-rule="evenodd" d="M1506.2,1505l0,-8.7l10.7,0c-0.4,3.1,-0.7,5.8,-1.2,8.7l-9.5,0Z" class="g2_29" />
<path fill-rule="evenodd" d="M1516.9,1493.6l-10.5,0l0,-8.6c2.7,0,5.3,-0.2,8.1,0.2c0.4,0,1.2,0.7,1.4,1.2c0.4,2.3,0.7,4.6,1,7.2Z" class="g2_29" />
<path fill-rule="evenodd" d="M1489.1,1493.6l-7.3,0c-0.8,-6.8,1.4,-9.1,8.4,-8.8c-0.2,1.4,-0.3,2.8,-0.6,4.2c-0.2,1.3,-0.3,2.9,-0.5,4.6Z" class="g2_29" />
<path fill-rule="evenodd" d="M1527.2,1496.3c0.1,7.5,-1.9,9.6,-8.7,8.6c0.3,-1.4,0.4,-2.8,0.6,-4.3c0.3,-1.2,0.4,-2.6,0.6,-4.3l7.5,0Z" class="g2_29" />
<path fill-rule="evenodd" d="M1503.3,1473.2l0,8.9l-8.8,0c0.7,-6.3,3.8,-9.5,8.8,-8.9Z" class="g2_29" />
<path fill-rule="evenodd" d="M1489,1496.3c0.4,2.9,0.9,5.7,1.2,8.4c-6.3,1.4,-8.4,-0.6,-8.7,-8.4l7.5,0Z" class="g2_29" />
<path fill-rule="evenodd" d="M1518.6,1485.3c6.7,-1.1,8.7,0.9,8.6,8.3l-7.5,0c-0.3,-2.8,-0.8,-5.5,-1.1,-8.3Z" class="g2_29" />
<path fill-rule="evenodd" d="M1514.8,1482.3l-8.4,0l0,-9.1c2.7,-0.3,4.7,0.3,5.8,3.2c0.6,1.9,1.7,3.7,2.6,5.9Z" class="g2_29" />
<path fill-rule="evenodd" d="M1494.2,1475.5c-0.9,1.9,-1.6,3.8,-2.5,5.5c-0.4,0.6,-1.5,1.1,-2.3,1.3c-1,0.1,-2.1,0,-3.3,0c0,-0.2,-0.3,-0.5,-0.5,-0.7c2.6,-2.3,5.4,-4.4,8,-6.5c0.1,0.1,0.3,0.3,0.6,0.4Z" class="g2_29" />
<path fill-rule="evenodd" d="M1523,1481.5c-4.8,1.4,-4.8,1.4,-7.8,-6.3c2.6,2,5.2,4.1,7.8,6.3Z" class="g2_29" />
<path fill-rule="evenodd" d="M1522.9,1508.4c-1.7,1.5,-3.4,3.2,-5.2,4.6c-0.3,0.3,-1.5,0,-1.8,-0.5c-0.7,-1.4,1.8,-4.7,3.5,-4.7c0.9,-0.2,2,-0.2,3,-0.2c0.2,0.3,0.3,0.5,0.5,0.8Z" class="g2_29" />
<path fill-rule="evenodd" d="M1485.5,1508.1c5.3,-0.9,6.1,-0.6,7.1,3.2c0,0.4,0,1.2,-0.3,1.7c-0.1,0.1,-1,0,-1.3,-0.2c-1.9,-1.5,-3.6,-3,-5.5,-4.7Z" class="g2_29" />
<path fill-rule="evenodd" d="M1514.5,1507.9c-0.3,0.9,-0.6,1.5,-0.9,2.3c-1.6,-0.8,-3.1,-1.4,-5.1,-2.3l6,0Z" class="g2_29" />
<path fill-rule="evenodd" d="M1494,1507.8l6.1,0c-1.8,0.7,-3.2,1.5,-4.9,2.3c-0.3,-0.7,-0.7,-1.3,-1.2,-2.3Z" class="g2_29" />
</svg>