<?xml version="1.0" encoding="UTF-8" standalone="no"?>
<!DOCTYPE svg PUBLIC "-//W3C//DTD SVG 1.1//EN"
"http://www.w3.org/Graphics/SVG/1.1/DTD/svg11.dtd">
<svg version="1.1" xmlns="http://www.w3.org/2000/svg" xmlns:xlink="http://www.w3.org/1999/xlink">
<defs>
<clipPath id="c0_3"><path d="M1356.5,692.5l0,-192l191,0l0,192Z" /></clipPath>
<style type="text/css"><![CDATA[
.g3_3{
fill: #31909D;
}
.g1_3{
fill: #FFFFFF;
}
.g2_3{
fill: none;
stroke: #D9D9D9;
stroke-width: 4;
stroke-linecap: butt;
stroke-linejoin: round;
}
]]></style>
</defs>
<path fill-rule="evenodd" d="M0,0L2933,0l0,1650L0,1650L0,0Z" class="g1_3" />
<path fill-rule="evenodd" d="M0,0L2933,0l0,1650L0,1650L0,0Z" class="g1_3" />
<image x="0" y="0" width="2934" height="1651" xlink:href="img/1.png" />
<path d="M236,279l1216,0l0,525" class="g2_3" />
<path d="M2732,1438l-1280,0l0,-445" class="g2_3" />
<g clip-path="url(#c0_3)">
<path fill-rule="evenodd" d="M1452.3,513.3c-45.7,0,-83,37.2,-83,83c0,45.7,37.3,82.9,83,82.9c45.7,0,83,-37.2,83,-82.9c0,-45.8,-37.3,-83,-83,-83Zm0,178.9c-52.9,0,-95.9,-43,-95.9,-95.9c0,-52.9,43,-96,95.9,-96c52.9,0,96,43.1,96,96c0,52.9,-43.1,95.9,-96,95.9Z" class="g3_3" />
</g>
<path fill-rule="evenodd" d="M1467.1,523.3c25.5,3.8,59.2,29.1,59.6,72.1c0.6,41.4,-30.9,69,-59.6,74.1c-0.1,-0.9,-0.1,-1.9,-0.1,-2.8c0,-15.3,0,-30.5,0,-45.8c0,-7,3.9,-10.9,10.8,-10.9c0.9,0,1.9,0,2.8,0c3.6,-0.3,6.5,-0.1,8.5,4.5c2.5,5.2,9.5,6.7,14.7,4.3c5,-2.3,8.1,-8.5,6.6,-13.3c-2,-6.6,-7.1,-10,-13.5,-9.1c-4.9,0.8,-7.6,3.9,-9.5,8.1c-4.7,0.2,-9.4,0,-14,0.7c-6.1,0.9,-11,6.5,-11.6,12.6c-0.2,2,-0.3,3.9,-0.3,5.8c0,14.6,0,28.9,0,43.4c0,4.2,0,4.2,-4.5,3.8c-0.1,-0.7,-0.1,-1.5,-0.1,-2.2c0,-20.4,0,-40.7,0,-61c0,-11.3,0,-22.6,-0.2,-33.9c0,-9.6,-6.1,-15.9,-15.9,-16.1c-1.3,0,-2.7,-0.1,-4.1,0c-3.5,0.3,-5.9,-0.1,-8.1,-3.8c-2.4,-4.4,-8.5,-5.8,-13.4,-3.8c-4.9,2,-8.1,7.2,-7.4,12.1c0.7,5.5,4.8,9.7,9.8,10.5c5.5,0.8,10.9,-2,12.7,-7.2c0.8,-2,1.8,-2.6,3.8,-2.4c2.5,0.1,4.8,0,7.1,0c6.4,0.1,10.2,4,10.2,10.2c0.1,5.2,0,10.6,0,15.8c0,26.2,0,52.5,0,78.8l0,3.4c-1.5,0,-2.9,-0.2,-4.6,-0.2l0,-2.9c0,-20.2,0,-40.2,0,-60.4c0,-5.1,0,-10.3,0,-15.5c-0.1,-7.7,-7.2,-14.2,-15.4,-14.2c-16.4,0,-32.7,0,-49.1,0l-3.2,0c2.5,-9.8,6.4,-18.4,12.2,-26c17.2,-22.3,39.9,-32.2,67.9,-30.4c2.3,0.1,2.3,1.2,2.3,2.9c0,10.5,0,21.2,0,31.8c0,8.4,4.6,14.9,11.7,16.2c3.9,0.6,7.7,0.4,11.3,0.4c2,0,3.1,0.5,4.2,2.3c2.4,5,8.2,7.3,13.6,5.8c5,-1.5,8.8,-6.9,8.4,-12.1c-0.3,-5.5,-4.6,-10.2,-10,-11c-5.5,-0.9,-11,2.2,-12.8,7.4c-0.6,2,-1.7,2.3,-3.4,2.3c-2.7,0,-5.5,0.1,-8.1,0c-5.3,-0.3,-9.3,-4,-9.4,-9.2c-0.2,-11.5,0,-22.8,0,-34.2c0,-0.3,0.1,-0.6,0.1,-0.9Z" class="g3_3" />
<path fill-rule="evenodd" d="M1430.9,668.6c-4,-1.7,-7.9,-2.9,-11.6,-4.8c-27.3,-14.3,-41.6,-37,-42.5,-67.8c0,-3.7,0.5,-7.3,0.9,-11c0.2,-0.6,1.3,-1.7,2,-1.7c17.3,0,34.7,-0.1,52.1,0c5.5,0,9.5,4.3,9.5,9.8c0,24.7,0.2,49.3,0.2,74.1c0,1.1,0,2,0,3.3c-1.9,-0.3,-3.1,-0.6,-4.9,-0.9l0,-3c0,-17.6,0,-35,0,-52.4c0,-10.6,-6.3,-16.8,-16.8,-16.8c-3.1,0,-6.1,0,-9.2,0c-1.8,-4.2,-4.4,-7.4,-9,-8.1c-6.1,-1.3,-12.4,2.4,-13.8,8.4c-1.5,6.4,2.2,12.6,8.3,14.3c5.9,1.7,11.9,-1.3,14,-7.3c0.7,-1.4,1.3,-2.1,2.8,-2c3.7,0.2,7.5,-0.1,11,0.5c4.4,0.9,7.3,4.5,7.3,9.1c0,18.4,0,36.7,0,55c0,0.2,-0.1,0.5,-0.3,1.3Z" class="g3_3" />
<path fill-rule="evenodd" d="M1405.6,600.9c-0.2,3.3,-3.1,6.2,-6.5,6.2c-3.6,0,-6.2,-2.9,-6.2,-6.7c0,-3.3,2.9,-6.1,6.4,-6.1c3.7,0,6.3,2.8,6.3,6.6Z" class="g3_3" />
<path fill-rule="evenodd" d="M1492.6,608.2c0,-4.1,2.6,-6.7,6.2,-6.6c3.8,0,6.7,2.9,6.5,6.8c-0.1,3.3,-3,6.2,-6.5,6.2c-3.6,-0.1,-6.2,-2.7,-6.2,-6.4Z" class="g3_3" />
<path fill-rule="evenodd" d="M1492.6,569.6c0,-3.7,2.5,-6.3,6.2,-6.5c3.5,0,6.5,2.9,6.5,6.5c0,3.5,-3,6.5,-6.5,6.5c-3.6,0,-6.2,-2.7,-6.2,-6.5Z" class="g3_3" />
<path fill-rule="evenodd" d="M1425.7,560.8c0,4,-2.4,6.6,-6.2,6.6c-3.6,0,-6.3,-2.9,-6.5,-6.2c0,-3.7,2.9,-6.6,6.6,-6.6c3.5,0,6.1,2.4,6.1,6.2Z" class="g3_3" />
</svg>