<?xml version="1.0" encoding="UTF-8" standalone="no"?>
<!DOCTYPE svg PUBLIC "-//W3C//DTD SVG 1.1//EN"
"http://www.w3.org/Graphics/SVG/1.1/DTD/svg11.dtd">
<svg version="1.1" xmlns="http://www.w3.org/2000/svg" xmlns:xlink="http://www.w3.org/1999/xlink">
<defs>
<clipPath id="c0_6"><path d="M332.5,925.5l0,-259l340,0l0,259Z" /></clipPath>
<clipPath id="c1_6"><path d="M816.5,1392.5l0,-259l340,0l0,259Z" /></clipPath>
<clipPath id="c2_6"><path d="M1815.5,1190.5l0,-265l347,0l0,265Z" /></clipPath>
<clipPath id="c3_6"><path d="M1402.5,697.5l0,-340l260,0l0,340Z" /></clipPath>
<clipPath id="c4_6"><path d="M148.5,236.5l0,-117l116,0l0,117Z" /></clipPath>
<clipPath id="c5_6"><path d="M289.5,1578.5l0,-121l121,0l0,121Z" /></clipPath>
<clipPath id="c6_6"><path d="M485.5,1582.5l0,-125l124,0l0,125Z" /></clipPath>
<style type="text/css"><![CDATA[
.g3_6{
fill: #31909D;
}
.g1_6{
fill: #FFFFFF;
}
.g5_6{
fill: #42C3D6;
}
.g4_6{
fill: #639BA3;
}
.g2_6{
fill: none;
stroke: #D9D9D9;
stroke-width: 4;
stroke-linecap: butt;
stroke-linejoin: round;
}
.g7_6{
fill: #747474;
}
.g8_6{
fill: #231F20;
}
.g6_6{
}
]]></style>
</defs>
<path fill-rule="evenodd" d="M0,0L2933,0l0,1650L0,1650L0,0Z" class="g1_6" />
<path fill-rule="evenodd" d="M0,0L2933,0l0,1650L0,1650L0,0Z" class="g1_6" />
<image x="0" y="0" width="2934" height="1650" xlink:href="img/1.png" />
<path d="M279,236l170,0l0,63l418,0" class="g2_6" />
<g clip-path="url(#c0_6)">
<path fill-rule="evenodd" d="M332.6,665.8l0,259.7l259.6,0l0,-201l80.5,-58.7l-340.1,0Z" class="g3_6" />
</g>
<path fill-rule="evenodd" d="M383.6,903.8c-1,0.6,-3.5,1.3,-6.5,1.3c-6.9,0,-12.3,-4.5,-12.3,-12.7c0,-7.7,5.4,-13,13,-13c3.1,0,5.1,0.8,5.8,1.1l-0.7,2.6c-1.3,-0.5,-2.9,-1,-4.9,-1c-5.8,0,-9.8,3.7,-9.8,10.3c0,5.9,3.5,9.9,9.6,9.9c2,0,3.8,-0.5,5.2,-1.1l0.6,2.6Z" class="g1_6" />
<path fill-rule="evenodd" d="M389.1,895.7c0,4,2.3,6.9,5.5,6.9c3.1,0,5.4,-2.9,5.4,-6.9c0,-3,-1.6,-6.8,-5.4,-6.8c-3.8,0,-5.5,3.5,-5.5,6.8Zm14.2,-0.1c0,6.6,-4.5,9.5,-8.8,9.5c-4.9,0,-8.6,-3.6,-8.6,-9.2c0,-6,3.8,-9.5,8.7,-9.5c5.2,0,8.7,3.7,8.7,9.2Z" class="g1_6" />
<path fill-rule="evenodd" d="M407.5,892.4c0,-2.2,-0.2,-3.8,-0.2,-5.5l2.8,0l0.1,3.3l0.2,0c0.7,-2.3,2.7,-3.8,4.8,-3.8c0.5,0,0.7,0,1,0.2l0,3c-0.3,-0.1,-0.6,-0.1,-1.1,-0.1c-2.3,0,-4,1.7,-4.4,4.1c0,0.5,0,0.9,0,1.5l0,9.5l-3.2,0l0,-12.2Z" class="g1_6" />
<path fill-rule="evenodd" d="M422.7,897.4c0,0.5,0.2,0.9,0.2,1.2c0.6,2.3,2.6,3.9,4.9,3.9c3.3,0,5.3,-2.8,5.3,-6.9c0,-3.5,-1.8,-6.6,-5.2,-6.6c-2.3,0,-4.2,1.5,-4.9,4c-0.1,0.4,-0.3,0.9,-0.3,1.4l0,3Zm-3.2,-4.9c0,-2.1,0,-3.9,-0.1,-5.6l2.9,0l0.1,3l0.2,0c1.2,-2.3,3.3,-3.5,6.2,-3.5c4.3,0,7.7,3.7,7.7,9c0,6.4,-4,9.7,-8.1,9.7c-2.5,0,-4.4,-1.1,-5.5,-2.9l-0.2,0l0,9.7l-3.2,0l0,-19.4Z" class="g1_6" />
<path fill-rule="evenodd" d="M442.4,895.7c0,4,2.3,6.9,5.5,6.9c3.1,0,5.4,-2.9,5.4,-6.9c0,-3,-1.5,-6.8,-5.4,-6.8c-3.8,0,-5.5,3.5,-5.5,6.8Zm14.3,-0.1c0,6.6,-4.6,9.5,-8.9,9.5c-4.9,0,-8.6,-3.6,-8.6,-9.2c0,-6,4,-9.5,8.9,-9.5c5,0,8.6,3.7,8.6,9.2Z" class="g1_6" />
<path fill-rule="evenodd" d="M460.8,892.4c0,-2.2,-0.2,-3.8,-0.2,-5.5l2.8,0l0.1,3.3l0.2,0c0.7,-2.3,2.7,-3.8,4.9,-3.8c0.4,0,0.6,0,0.9,0.2l0,3c-0.3,-0.1,-0.6,-0.1,-1.1,-0.1c-2.3,0,-4,1.7,-4.3,4.1c-0.1,0.5,-0.1,0.9,-0.1,1.5l0,9.5l-3.2,0l0,-12.2Z" class="g1_6" />
<path fill-rule="evenodd" d="M482,895.6c-3.5,-0.2,-7.6,0.4,-7.6,4c0,2.1,1.3,3,3,3c2.5,0,3.9,-1.4,4.5,-2.9c0,-0.4,0.1,-0.8,0.1,-1.1l0,-3Zm0.5,9l-0.3,-2.1c-1.1,1.3,-3.1,2.6,-5.5,2.6c-3.7,0,-5.5,-2.6,-5.5,-5.2c0,-4.3,3.8,-6.6,10.7,-6.6l0,-0.5c0,-1.3,-0.3,-3.9,-4,-3.9c-1.7,0,-3.4,0.4,-4.7,1.2l-0.7,-2.2c1.4,-0.9,3.6,-1.5,5.8,-1.5c5.5,0,6.8,3.7,6.8,7.4l0,6.5c0,1.5,0.1,3.1,0.3,4.3l-2.9,0Z" class="g1_6" />
<path fill-rule="evenodd" d="M494.1,881.7l0,5.2l4.6,0l0,2.4l-4.6,0l0,9.6c0,2.2,0.6,3.4,2.4,3.4c0.8,0,1.6,-0.1,1.9,-0.1l0.1,2.4c-0.6,0.2,-1.7,0.5,-2.9,0.5c-1.4,0,-2.7,-0.7,-3.5,-1.4c-0.8,-0.9,-1.2,-2.6,-1.2,-4.8l0,-9.6l-2.8,0l0,-2.4l2.8,0l0,-4.3l3.2,-0.9Z" class="g1_6" />
<path fill-rule="evenodd" d="M502.3,886.9l3.2,0l0,17.7l-3.2,0l0,-17.7Zm3.7,-5.1c0,1.1,-0.8,2,-2.1,2c-1.1,0,-1.9,-0.9,-1.9,-2c0,-1,0.8,-2,2,-2c1.2,0,2,1,2,2Z" class="g1_6" />
<path fill-rule="evenodd" d="M512.3,886.9l3.5,9.9c0.4,1.7,1,3.1,1.4,4.6l0.1,0c0.5,-1.5,0.9,-2.9,1.5,-4.6l3.4,-9.9l3.4,0l-6.9,17.7l-3.2,0l-6.7,-17.7l3.5,0Z" class="g1_6" />
<path fill-rule="evenodd" d="M530.3,895.7c0,4,2.3,6.9,5.3,6.9c3.2,0,5.5,-2.9,5.5,-6.9c0,-3,-1.5,-6.8,-5.3,-6.8c-3.8,0,-5.5,3.5,-5.5,6.8Zm14.2,-0.1c0,6.6,-4.6,9.5,-8.9,9.5c-4.9,0,-8.5,-3.6,-8.5,-9.2c0,-6,3.8,-9.5,8.7,-9.5c5.2,0,8.7,3.7,8.7,9.2Z" class="g1_6" />
<path fill-rule="evenodd" d="M458.8,707.8c-38.8,0,-70.4,31.6,-70.4,70.5c0,38.9,31.6,70.5,70.4,70.5c38.9,0,70.6,-31.6,70.6,-70.5c0,-38.9,-31.7,-70.5,-70.6,-70.5Zm0,152c-44.9,0,-81.6,-36.6,-81.6,-81.5c0,-45,36.7,-81.6,81.6,-81.6c45.1,0,81.6,36.6,81.6,81.6c0,44.9,-36.5,81.5,-81.6,81.5Z" class="g1_6" />
<path fill-rule="evenodd" d="M411.3,803.9c0,-2.1,-1.7,-4,-3.7,-4.1c-2.3,-0.2,-4.3,1.8,-4.3,4c0,2.3,1.9,3.9,4,3.9c2.1,0,4,-1.6,4,-3.8ZM395.5,748.5l19.6,0l0,63.1l-19.6,0l0,-63.1Z" class="g1_6" />
<path fill-rule="evenodd" d="M510.1,799.8c-2,0,-3.8,1.8,-3.8,4c0,2.1,1.7,3.9,3.8,3.9c2.5,0,4.2,-1.8,4.2,-4.1c0,-2.1,-2,-3.8,-4.2,-3.8Zm12.1,11.8l-19.6,0l0,-63.1l19.6,0l0,63.1Z" class="g1_6" />
<path fill-rule="evenodd" d="M456.7,813.1c-4.2,3.5,-9.4,3.3,-13.3,-0.5C437.7,807,432.2,801.2,426.6,795.5c-2,-2,-3.9,-4.1,-7.2,-3.7l0,-30.7c2.4,-1,4.6,-1.9,6.5,-3c4.5,-2.6,8.8,-5.4,13.2,-8.1c1.4,-0.8,3,-1.2,4.9,-1.2c-0.3,0.4,-0.6,0.9,-1.1,1.3c-4,3.7,-7.9,7.4,-11.8,11.2c-2.6,2.6,-2.6,4,-0.7,7.2c0.7,1.2,1.5,2.4,2.4,3.3c2.5,2.6,4.1,3.1,7.2,1.3c5.3,-2.9,10.4,-6,15.6,-9.1c2.1,-1.3,3.5,-1.3,5.3,0.7c6.1,7,12.6,13.7,18.8,20.6c2.3,2.4,4.6,4.9,7.1,7.3c2.5,2.5,3.6,5.7,3.6,9c0,5.1,-3.8,7.1,-9.5,5.1c-2.2,5,-4.4,5.8,-11,4.2c-4.8,5.7,-8.1,6.2,-13.2,2.2Z" class="g1_6" />
<path fill-rule="evenodd" d="M498.2,761.4l0,30.4c-2.7,0,-5.6,0.4,-8.4,-0.1c-1.2,-0.2,-2.4,-1.2,-3.4,-2.3C479,781.3,471.5,772.9,463.8,764.8c-5.6,-6,-3.8,-5.5,-11.3,-1.4c-4.4,2.5,-8.8,5.1,-13.3,7.8c-2.1,1.2,-3.5,0.8,-5,-0.9c-3.7,-3.8,-3.8,-5.6,0,-9.3c7,-6.3,14.2,-12.2,21.2,-18.5c2.5,-2.1,4.6,-2.1,7.4,-0.6c8.8,5.3,17.7,10.5,26.5,15.7c2.6,1.6,5.5,2.5,8.9,3.8Z" class="g1_6" />
<g clip-path="url(#c1_6)">
<path fill-rule="evenodd" d="M816.3,1132.8l0,260.2l260.2,0l0,-201.3l80.5,-58.9l-340.7,0Z" class="g4_6" />
</g>
<path fill-rule="evenodd" d="M865,1349l-8,0l0,-2l19,0l0,2l-8,0l0,23l-3,0l0,-23Z" class="g1_6" />
<path fill-rule="evenodd" d="M877.3,1359.7c0,-2,0,-3.8,-0.2,-5.5l2.9,0l0.2,3.5c0.9,-2.4,2.9,-3.9,5,-3.9c0.3,0,0.6,0,0.9,0.1l0,3.1c-0.3,0,-0.8,-0.2,-1.1,-0.2c-2.3,0,-3.9,1.9,-4.4,4.1c0,0.7,-0.1,1.1,-0.1,1.6l0,9.6l-3.2,0l0,-12.4Z" class="g1_6" />
<path fill-rule="evenodd" d="M898.5,1362.9c-3.5,0,-7.5,0.6,-7.5,4.2c0,1.9,1.4,3,3.1,3c2.2,0,3.8,-1.5,4.2,-3c0.2,-0.3,0.2,-0.7,0.2,-1.1l0,-3.1Zm0.6,9.2l-0.3,-2.3l-0.2,0c-0.9,1.4,-2.9,2.6,-5.5,2.6c-3.5,0,-5.3,-2.4,-5.3,-5c0,-4.5,3.8,-6.8,10.7,-6.8l0,-0.3c0,-1.5,-0.5,-4.1,-4.1,-4.1c-1.6,0,-3.4,0.5,-4.6,1.2l-0.8,-2c1.5,-1,3.7,-1.6,6,-1.6c5.5,0,6.7,3.6,6.7,7.3l0,6.7c0,1.5,0,3.1,0.3,4.3l-2.9,0Z" class="g1_6" />
<path fill-rule="evenodd" d="M906.9,1359c0,-1.9,0,-3.2,-0.2,-4.8l2.9,0l0.2,2.9l0.1,0c1,-1.7,2.9,-3.3,5.9,-3.3c2.5,0,6.4,1.5,6.4,7.6l0,10.7l-3.2,0l0,-10.2c0,-2.9,-1.3,-5.4,-4.2,-5.4c-2.3,0,-3.8,1.5,-4.4,3.4c-0.2,0.3,-0.2,0.9,-0.2,1.4l0,10.8l-3.3,0l0,-13.1Z" class="g1_6" />
<path fill-rule="evenodd" d="M926.9,1368.7c1.1,0.6,2.8,1.3,4.3,1.3c2.4,0,3.5,-1.1,3.5,-2.6c0,-1.6,-0.9,-2.5,-3.4,-3.2c-3.2,-1.3,-4.7,-2.9,-4.7,-5.2c0,-2.8,2.4,-5.2,6.3,-5.2c1.6,0,3.3,0.6,4.2,1l-0.7,2.5c-0.6,-0.5,-2,-1.1,-3.7,-1.1c-1.8,0,-2.9,1.1,-2.9,2.5c0,1.5,1.1,2.1,3.4,3c3,1.2,4.5,2.8,4.5,5.4c0,3.2,-2.2,5.3,-6.5,5.3c-2,0,-3.8,-0.5,-5.1,-1.2l0.8,-2.5Z" class="g1_6" />
<path fill-rule="evenodd" d="M945.2,1364.8c0,0.4,0,0.9,0.2,1.3c0.6,2.3,2.4,3.9,4.9,3.9c3.3,0,5.3,-2.9,5.3,-7.1c0,-3.5,-1.8,-6.5,-5.3,-6.5c-2.2,0,-4.3,1.6,-4.9,3.9c-0.2,0.5,-0.2,1,-0.2,1.4l0,3.1ZM942,1360c0,-2.3,-0.1,-4.1,-0.1,-5.8l2.9,0l0.1,3.1c1.4,-2.2,3.5,-3.5,6.4,-3.5c4.3,0,7.5,3.6,7.5,9.1c0,6.4,-3.8,9.5,-8.1,9.5c-2.3,0,-4.4,-1.1,-5.5,-2.7l0,9.6l-3.2,0l0,-19.3Z" class="g1_6" />
<path fill-rule="evenodd" d="M964.9,1363.1c0,4,2.3,6.9,5.5,6.9c3.1,0,5.4,-2.9,5.4,-6.9c0,-3.1,-1.5,-6.9,-5.4,-6.9c-3.8,0,-5.5,3.5,-5.5,6.9Zm14.3,-0.2c0,6.8,-4.6,9.5,-8.9,9.5c-4.9,0,-8.6,-3.5,-8.6,-9.2c0,-5.9,3.9,-9.4,8.9,-9.4c5,0,8.6,3.6,8.6,9.1Z" class="g1_6" />
<path fill-rule="evenodd" d="M983.3,1359.7c0,-2,-0.2,-3.8,-0.2,-5.5l2.8,0l0.1,3.5l0.2,0c0.7,-2.4,2.7,-3.9,4.9,-3.9c0.4,0,0.6,0,0.9,0.1l0,3.1c-0.3,0,-0.6,-0.2,-1.1,-0.2c-2.3,0,-4,1.9,-4.3,4.1c-0.1,0.7,-0.1,1.1,-0.1,1.6l0,9.6l-3.2,0l0,-12.4Z" class="g1_6" />
<path fill-rule="evenodd" d="M1000.1,1349l0,5.2l4.6,0l0,2.5l-4.6,0l0,9.6c0,2.1,0.6,3.5,2.4,3.5c0.8,0,1.6,-0.1,1.9,-0.3l0.1,2.4c-0.6,0.4,-1.7,0.5,-2.7,0.5c-1.7,0,-2.8,-0.5,-3.7,-1.4c-0.9,-0.9,-1.2,-2.6,-1.2,-4.6l0,-9.7l-2.8,0l0,-2.5l2.8,0l0,-4.3l3.2,-0.9Z" class="g1_6" />
<path fill-rule="evenodd" d="M1019.5,1361.4c0,-2.1,-0.9,-5.3,-4.4,-5.3c-3.4,0,-4.8,3,-5.1,5.3l9.5,0Zm-9.5,2.3c0,4.4,2.9,6.3,6.1,6.3c2.3,0,3.7,-0.5,4.9,-1l0.6,2.3c-1.2,0.5,-3,1.1,-5.9,1.1c-5.5,0,-8.7,-3.7,-8.7,-9c0,-5.4,3,-9.6,8.2,-9.6c5.8,0,7.3,5.2,7.3,8.4c0,0.7,0,1.2,0,1.5l-12.5,0Z" class="g1_6" />
<path fill-rule="evenodd" d="M942.8,1174.9c-39,0,-70.6,31.6,-70.6,70.5c0,39,31.6,70.6,70.6,70.6c38.9,0,70.6,-31.6,70.6,-70.6c0,-38.9,-31.7,-70.5,-70.6,-70.5Zm0,152.3c-45.1,0,-81.7,-36.7,-81.7,-81.8c0,-45,36.6,-81.7,81.7,-81.7c45.1,0,81.7,36.7,81.7,81.7c0,45.1,-36.6,81.8,-81.7,81.8Z" class="g1_6" />
<path fill-rule="evenodd" d="M891,1208.5c1.4,-2.2,3.4,-2.8,5.8,-2.8c16.7,0,33.5,0,50.1,0c4.8,0,6.1,1.4,6.1,6.1c0,18.2,0,36.4,0,54.6c0,4.3,-1.2,5.5,-5.5,5.5c-5,0,-10.1,0,-15.1,0c-2,-7.7,-6.7,-12.2,-14.8,-12.6c-6.7,0,-11.5,4.2,-14.4,12.6c-2.7,0,-5.6,0.3,-8.4,0c-1.4,-0.3,-2.6,-1.9,-3.8,-2.8l0,-60.6Z" class="g1_6" />
<path fill-rule="evenodd" d="M991.2,1247c-0.1,-0.6,-0.1,-1.2,-0.4,-1.6c-3.2,-4.5,-6.6,-9.1,-9.8,-13.7c-0.3,-0.5,-1.1,-0.9,-1.7,-0.9c-3.2,-0.2,-6.4,0,-9.6,0l0,16.2l21.5,0Zm7.1,22.1c-1.7,3.7,-4.9,2.8,-8.1,2.8c-2,-7.7,-6.8,-12.6,-14.7,-12.4c-8,0,-12.5,4.9,-14.4,12.4c-2.9,-0.5,-3.9,-1.6,-3.9,-4c0,-13.7,0,-27.7,0,-41.4c0,-2.4,1.3,-4.1,3.9,-4.1c6.3,0,12.7,-0.2,19.1,0c1.2,0.1,2.8,0.9,3.7,2c5.3,6.4,11.3,12.6,14.4,20.9l0,23.8Z" class="g1_6" />
<path fill-rule="evenodd" d="M975.6,1264.4c5.2,0,9.7,4.4,9.7,9.6c0,5.4,-4.5,9.6,-9.7,9.6c-5.3,0,-9.4,-4.2,-9.4,-9.4c0,-5.5,3.9,-9.8,9.4,-9.8Z" class="g1_6" />
<path fill-rule="evenodd" d="M927.4,1273.9c0,5.5,-4.2,9.7,-9.7,9.7c-5.2,0,-9.6,-4.5,-9.6,-9.7c0.2,-5.2,4.6,-9.5,9.8,-9.5c5.3,0.1,9.5,4.3,9.5,9.5Z" class="g1_6" />
<g clip-path="url(#c2_6)">
<path fill-rule="evenodd" d="M1814.8,925.4l0,265.4l265.6,0l0,-205.5l82.2,-59.9l-347.8,0Z" class="g3_6" />
</g>
<path fill-rule="evenodd" d="M1870.8,1158.2c-0.2,-3.5,-0.5,-7.8,-0.3,-10.8l-0.2,0c-0.9,2.9,-2,6.1,-3.2,9.4l-4.4,12.4l-2.6,0l-4.2,-12.1c-1,-3.5,-2.1,-6.8,-2.9,-9.7c-0.1,3,-0.3,7.3,-0.6,11.1l-0.6,10.9l-3,0l1.6,-25.4l4.3,0l4.3,12.4c1.1,3,1.8,5.8,2.6,8.4l0.1,0c0.7,-2.5,1.4,-5.4,2.6,-8.4l4.5,-12.4l4.3,0l1.5,25.4l-3.2,0l-0.6,-11.2Z" class="g1_6" />
<path fill-rule="evenodd" d="M1889.4,1160c-3.7,0,-7.8,0.7,-7.8,4.2c0,2.1,1.5,3.2,3.2,3.2c2.3,0,3.8,-1.6,4.4,-3.1c0,-0.3,0.2,-0.7,0.2,-1l0,-3.3Zm0.5,9.4l-0.3,-2.3c-1.1,1.3,-3.1,2.7,-5.7,2.7c-3.7,0,-5.6,-2.6,-5.6,-5.2c0,-4.4,3.9,-6.9,10.9,-6.9l0,-0.3c0,-1.5,-0.3,-4.2,-4.1,-4.2c-1.7,0,-3.3,0.6,-4.7,1.3l-0.8,-2.1c1.6,-1.1,3.7,-1.7,6,-1.7c5.6,0,7,3.8,7,7.5l0,6.7c0,1.7,0,3.2,0.3,4.5l-3,0Z" class="g1_6" />
<path fill-rule="evenodd" d="M1898,1156.1c0,-1.9,0,-3.4,-0.2,-4.9l2.9,0l0.2,3l0.1,0c0.9,-1.8,2.9,-3.5,6,-3.5c2.6,0,6.4,1.6,6.4,7.8l0,10.9l-3.4,0l0,-10.4c0,-3.1,-1,-5.5,-4.1,-5.5c-2.1,0,-4,1.5,-4.4,3.3c-0.2,0.5,-0.3,1.1,-0.3,1.6l0,11l-3.2,0l0,-13.3Z" class="g1_6" />
<path fill-rule="evenodd" d="M1934,1164.5c0,1.8,0.2,3.5,0.2,4.9l-2.9,0l-0.2,-2.9l-0.1,0c-1,1.3,-2.8,3.3,-6,3.3c-2.9,0,-6.3,-1.7,-6.3,-7.9l0,-10.7l3.2,0l0,10.1c0,3.3,1.1,5.8,4.2,5.8c2.3,0,3.6,-1.6,4.2,-3.1c0.4,-0.4,0.4,-1.1,0.4,-1.7l0,-11.1l3.3,0l0,13.3Z" class="g1_6" />
<path fill-rule="evenodd" d="M1939.8,1169.4l0,-15.8l-2.4,0l0,-2.4l2.4,0l0,-0.9c0,-2.6,0.6,-4.9,2.2,-6.3c1.2,-1.2,2.9,-1.7,4.4,-1.7c1.2,0,2.1,0.2,2.7,0.5l-0.3,2.6c-0.4,-0.3,-1.2,-0.5,-2.1,-0.5c-2.9,0,-3.5,2.5,-3.5,5.4l0,0.9l4.3,0l0,2.4l-4.3,0l0,15.8l-3.4,0Z" class="g1_6" />
<path fill-rule="evenodd" d="M1960.1,1160c-3.6,0,-7.8,0.7,-7.8,4.2c0,2.1,1.6,3.2,3.3,3.2c2.2,0,3.8,-1.6,4.2,-3.1c0.2,-0.3,0.3,-0.7,0.3,-1l0,-3.3Zm0.5,9.4l-0.3,-2.3l-0.2,0c-0.9,1.3,-2.9,2.7,-5.5,2.7c-3.6,0,-5.5,-2.6,-5.5,-5.2c0,-4.4,3.9,-6.9,10.9,-6.9l0,-0.3c0,-1.5,-0.5,-4.2,-4.1,-4.2c-1.7,0,-3.6,0.6,-4.8,1.3l-0.7,-2.1c1.5,-1.1,3.6,-1.7,6.1,-1.7c5.5,0,6.8,3.8,6.8,7.5l0,6.7c0,1.7,0,3.2,0.4,4.5l-3.1,0Z" class="g1_6" />
<path fill-rule="evenodd" d="M1981.7,1168.8c-0.9,0.4,-2.8,1,-5.4,1c-5.5,0,-9,-3.8,-9,-9.3c0,-5.7,3.8,-9.6,9.8,-9.6c2,0,3.7,0.4,4.6,0.7l-0.8,2.6c-0.7,-0.4,-2,-0.7,-3.8,-0.7c-4.1,0,-6.4,3,-6.4,6.8c0,4.2,2.7,6.8,6.2,6.8c2,0,3.3,-0.5,4.2,-0.9l0.6,2.6Z" class="g1_6" />
<path fill-rule="evenodd" d="M1989.9,1146l0,5.2l4.8,0l0,2.4l-4.8,0l0,10c0,2.2,0.6,3.5,2.6,3.5c0.8,0,1.6,-0.2,1.9,-0.3l0.1,2.6c-0.6,0.3,-1.7,0.4,-2.9,0.4c-1.5,0,-2.7,-0.4,-3.7,-1.4c-0.9,-1,-1.2,-2.6,-1.2,-4.8l0,-10l-2.7,0l0,-2.4l2.7,0l0,-4.4l3.2,-0.8Z" class="g1_6" />
<path fill-rule="evenodd" d="M2013.8,1164.5c0,1.8,0,3.5,0.1,4.9l-3,0l-0.2,-2.9c-0.9,1.3,-2.7,3.3,-6.1,3.3c-2.8,0,-6.3,-1.7,-6.3,-7.9l0,-10.7l3.4,0l0,10.1c0,3.3,1.1,5.8,4,5.8c2.3,0,3.8,-1.6,4.4,-3.1c0.2,-0.4,0.3,-1.1,0.3,-1.7l0,-11.1l3.4,0l0,13.3Z" class="g1_6" />
<path fill-rule="evenodd" d="M2019.3,1156.8c0,-2.1,-0.2,-3.9,-0.2,-5.6l2.8,0l0.1,3.5l0.2,0c0.9,-2.4,2.9,-4,5,-4c0.5,0,0.8,0.2,0.9,0.2l0,3c-0.3,0,-0.6,0,-1,0c-2.3,0,-4,1.7,-4.5,4.2c-0.1,0.6,-0.1,1,-0.1,1.6l0,9.7l-3.2,0l0,-12.6Z" class="g1_6" />
<path fill-rule="evenodd" d="M2041,1160c-3.7,0,-7.8,0.7,-7.8,4.2c0,2.1,1.3,3.2,3.2,3.2c2.3,0,3.8,-1.6,4.3,-3.1c0.1,-0.3,0.3,-0.7,0.3,-1l0,-3.3Zm0.4,9.4l-0.3,-2.3l-0.1,0c-1,1.3,-2.9,2.7,-5.5,2.7c-3.7,0,-5.7,-2.6,-5.7,-5.2c0,-4.4,4,-6.9,11,-6.9l0,-0.3c0,-1.5,-0.5,-4.2,-4.1,-4.2c-1.7,0,-3.5,0.6,-4.8,1.3l-0.7,-2.1c1.5,-1.1,3.6,-1.7,5.9,-1.7c5.7,0,7.1,3.8,7.1,7.5l0,6.7c0,1.7,0,3.2,0.3,4.5l-3.1,0Z" class="g1_6" />
<path fill-rule="evenodd" d="M1943.9,968.2c-39.7,0,-72.1,32.3,-72.1,72.1c0,39.7,32.4,72.1,72.1,72.1c39.8,0,72.2,-32.4,72.2,-72.1c0,-39.8,-32.4,-72.1,-72.2,-72.1Zm0,155.3c-45.9,0,-83.4,-37.2,-83.4,-83.2c0,-46,37.5,-83.5,83.4,-83.5c46,0,83.5,37.5,83.5,83.5c0,46,-37.5,83.2,-83.5,83.2Z" class="g1_6" />
<path fill-rule="evenodd" d="M1943.6,991.4c1.3,0.3,2.5,0.7,3.6,1c4.2,1.6,6.8,4.6,6.8,8.3c0,3.7,-2.6,6.9,-6.8,8.4c-4.5,1.5,-8.8,1.4,-13,-0.9c-0.9,-0.6,-1.6,-0.6,-2.5,-0.2c-3.8,2.5,-7.8,2.6,-11.9,0.8c-0.6,-0.3,-1.7,-0.2,-2.3,0.1c-2.6,1.4,-5.2,1.7,-7.6,0.2c-1.1,-0.8,-2.5,-2.3,-2.5,-3.4c0,-1.3,1.3,-2.7,2.3,-3.8c0.6,-0.6,2.2,-1.1,3.1,-0.9c2,0.2,2.7,-0.8,3.6,-2.3c2.5,-3.7,7.8,-5,12.9,-3.4c1.2,0.5,2,0.2,3,-0.6c2.3,-1.3,4.9,-2.3,7.4,-3.3l3.9,0Z" class="g1_6" />
<path fill-rule="evenodd" d="M1973,1066.5l-9.3,0l0,6.3l9.3,0l0,-6.3Zm-37.6,0l-9.3,0l0,6.5l9.3,0l0,-6.5Zm18.8,0l-9.5,0l0,6.5c1.5,0,2.8,0,4.1,0c6,0,6,0,5.4,-6.5Zm9.6,-6.2l9.3,0l0,-6.4c-1.7,0,-3,0,-4.6,0c-5.8,0,-5.9,0.3,-4.7,6.4Zm-18.8,0.1c2.8,0,5.4,0.2,8.1,0c0.5,0,1.2,-0.7,1.2,-1c0.2,-1.9,0,-3.6,0,-5.1c-0.3,-0.1,-0.4,-0.3,-0.7,-0.3c-1.3,-0.1,-2.3,-0.1,-3.5,-0.1c-5.9,0,-5.9,0,-5.4,5.9c0,0.2,0,0.2,0.3,0.6Zm-18.8,0c2.5,0,5.1,0,7.5,0c1.5,0.2,1.8,-0.4,1.8,-1.8c0,-5.8,0.7,-4.7,-4.4,-4.7c-5.8,0,-5.8,0,-5.2,5.9c0,0.2,0.2,0.3,0.3,0.6Zm-25.2,18.7l0,-52.9l18.5,0l0,15.6c7.3,-5.7,14.2,-10.9,21.2,-16.1c0.2,0.2,0.3,0.4,0.6,0.5l0,15.6c7.5,-5.7,14.4,-10.9,21.3,-16.1c0.1,0.2,0.4,0.4,0.7,0.5l0,15.6c2.8,-2.1,5.1,-3.8,7.4,-5.5c4.1,-3.1,8.1,-6.3,12.2,-9.3c0.6,-0.3,1.4,-0.5,2,-0.8c0.1,0.8,0.6,1.4,0.6,2.1c0,15.9,0,31.8,0,47.9l0,2.6c0.2,0,0.3,-0.2,0.5,-0.3c0.9,1,2.3,1.8,2.6,2.9c0.6,3,-0.5,3.9,-3.4,3.9c-28,0,-55.9,0,-83.9,0c-1.7,0,-3.3,0,-3.5,-2.3c-0.1,-2.9,0.3,-3.5,3.2,-3.9Z" class="g1_6" />
<path fill-rule="evenodd" d="M1901,1022.4c0,-2.2,-0.1,-4.1,0,-6.1c0.2,-1.7,1.2,-2.9,3.1,-2.9c4.1,0,8.2,0,12.2,0c2.3,0.1,3.2,1.2,3.2,3.5c0.2,1.7,0,3.5,0,5.5l-18.5,0Z" class="g1_6" />
<g clip-path="url(#c3_6)">
<path fill-rule="evenodd" d="M1662.7,357.3l-71.1,80.6l-188.9,0l0,259.8l260,0l0,-340.4Z" class="g5_6" />
</g>
<path fill-rule="evenodd" d="M1486.2,681.2l-8.1,-24.9l3.5,0l3.9,12.3c1,3.5,1.9,6.4,2.6,9.3l0.1,0c0.6,-2.9,1.7,-6,2.8,-9.2l4.2,-12.4l3.4,0l-8.9,24.9l-3.5,0Z" class="g1_6" />
<path fill-rule="evenodd" d="M1511.3,670.5c0,-1.9,-0.8,-5.2,-4.5,-5.2c-3.3,0,-4.7,3,-5,5.2l9.5,0Zm-9.5,2.3c0.2,4.5,2.9,6.3,6.1,6.3c2.3,0,3.7,-0.5,4.9,-0.9l0.6,2.3c-1.1,0.4,-3,1,-5.9,1c-5.5,0,-8.7,-3.5,-8.7,-9c0,-5.3,3.2,-9.6,8.4,-9.6c5.8,0,7.3,5.2,7.3,8.6c0,0.6,-0.2,1,-0.2,1.3l-12.5,0Z" class="g1_6" />
<path fill-rule="evenodd" d="M1518.5,668.3c0,-1.9,0,-3.4,-0.2,-4.9l2.9,0l0.2,2.9c0.9,-1.7,3,-3.4,5.9,-3.4c2.5,0,6.3,1.5,6.3,7.6l0,10.7l-3.2,0l0,-10.4c0,-2.7,-1.1,-5.1,-4.1,-5.1c-2.2,0,-3.9,1.5,-4.3,3.3c-0.2,0.5,-0.3,0.9,-0.3,1.5l0,10.7l-3.2,0l0,-12.9Z" class="g1_6" />
<path fill-rule="evenodd" d="M1542.6,658.3l0,5.1l4.7,0l0,2.4l-4.7,0l0,9.6c0,2.3,0.8,3.5,2.4,3.5c1,0,1.6,-0.1,2,-0.3l0.2,2.5c-0.6,0.3,-1.7,0.4,-2.9,0.4c-1.6,0,-2.8,-0.4,-3.5,-1.3c-1,-1,-1.3,-2.5,-1.3,-4.6l0,-9.8l-2.7,0l0,-2.4l2.7,0l0,-4.3l3.1,-0.8Z" class="g1_6" />
<path fill-rule="evenodd" d="M1560.3,672.1c-3.5,0,-7.5,0.6,-7.5,4.1c0,2,1.4,3,3.1,3c2.3,0,3.8,-1.5,4.3,-3c0.1,-0.3,0.1,-0.6,0.1,-1.1l0,-3Zm0.5,9.1l-0.2,-2.3l-0.1,0c-0.9,1.6,-2.9,2.6,-5.5,2.6c-3.5,0,-5.4,-2.4,-5.4,-5c0,-4.3,3.8,-6.7,10.7,-6.6l0,-0.4c0,-1.6,-0.4,-4.2,-4.1,-4.2c-1.5,0,-3.4,0.7,-4.6,1.4l-0.8,-2.1c1.6,-0.9,3.7,-1.7,5.9,-1.7c5.5,0,6.8,3.8,6.8,7.3l0,6.8c0,1.5,0,3,0.3,4.2l-3,0Z" class="g1_6" />
<path fill-rule="evenodd" d="M1568.3,677.9c0.9,0.6,2.6,1.3,4.2,1.3c2.3,0,3.6,-1.2,3.6,-2.7c0,-1.5,-1,-2.4,-3.4,-3.2c-3.2,-1.2,-4.7,-2.9,-4.7,-5c0,-3,2.3,-5.4,6.1,-5.4c1.8,0,3.3,0.6,4.4,1.2l-0.8,2.3c-0.7,-0.4,-1.9,-1.1,-3.6,-1.1c-2,0,-3.1,1.3,-3.1,2.5c0,1.5,1.1,2.1,3.5,3c3.1,1.3,4.6,2.8,4.6,5.4c0,3.2,-2.4,5.3,-6.6,5.3c-1.9,0,-3.8,-0.4,-5,-1l0.8,-2.6Z" class="g1_6" />
<path fill-rule="evenodd" d="M1529.2,479.9c-39,0,-70.6,31.6,-70.6,70.6c0,38.8,31.6,70.5,70.6,70.5c38.8,0,70.5,-31.7,70.5,-70.5c0,-39,-31.7,-70.6,-70.5,-70.6Zm0,152.1c-45.1,0,-81.8,-36.6,-81.8,-81.5c0,-45.3,36.7,-81.8,81.8,-81.8c44.9,0,81.5,36.5,81.5,81.8c0,44.9,-36.6,81.5,-81.5,81.5Z" class="g1_6" />
<path fill-rule="evenodd" d="M1538.5,521.9c11.3,0,22.6,0,34,0c5.5,0,7.5,2.7,5.5,7.9c-4.2,11.8,-8.7,23.6,-13.3,35.3c-1.6,4.5,-5.1,6.7,-9.9,6.7c-11.3,0,-22.6,0,-33.7,0c-4.6,0,-8,-1.9,-9.7,-6.1c-4.7,-12,-9.4,-24.3,-13.9,-36.5c-1.7,-4.6,0.8,-7.5,5.8,-7.5c11.6,0,23.4,0,35.2,0l0,0.2Z" class="g1_6" />
<path fill-rule="evenodd" d="M1559.2,583.5c4.3,4.5,4.6,9,1.3,12.3c-2.9,2.9,-8.1,2.9,-11,0.2c-3.5,-3.4,-3.2,-8,0.9,-12.5l-27.4,0c2.3,2.3,4.2,4.8,3.4,8.1c-0.6,1.6,-1.7,3.6,-3.1,4.8c-2.9,2.6,-7.9,2,-10.5,-0.9c-3,-3.3,-2.7,-7.6,1.4,-12.2c-1.4,0,-2.5,-0.1,-3.5,0c-4.2,0.3,-6.8,-1.8,-8.3,-5.5c-4.3,-9.9,-8.7,-20,-13,-30.1c-0.7,-2,-1.8,-2.6,-3.8,-2.4c-4,0.1,-7.9,0,-11.8,0c-3.5,0,-5.6,-2,-5.6,-4.9c-0.2,-3.1,2.1,-5.1,5.6,-5.1c5.2,0,10.3,0,15.5,0c4,0,6.5,1.7,8.1,5.4c4.3,10.2,8.7,20.3,13,30.5c0.6,1.6,1.5,2.3,3.3,2.3c14.5,-0.1,29.2,-0.1,43.7,-0.1c0.9,0,1.8,0,2.8,0c2.9,0.3,4.5,1.8,4.9,4.4c0.1,2.8,-1.4,4.7,-4.2,5.4c-0.4,0.1,-0.9,0.1,-1.7,0.3Z" class="g1_6" />
<g clip-path="url(#c4_6)">
<path fill-rule="evenodd" d="M207.2,127.3c-28.1,0,-50.9,22.7,-50.9,50.5c0,28.1,22.8,50.9,50.9,50.9c27.9,0,50.5,-22.8,50.5,-50.9c0,-27.8,-22.6,-50.5,-50.5,-50.5Zm0,109.4c-32.6,0,-58.9,-26.3,-58.9,-58.9c0,-32.4,26.3,-58.5,58.9,-58.5c32.4,0,58.6,26.1,58.6,58.5c0,32.6,-26.2,58.9,-58.6,58.9Z" class="g6_6" />
</g>
<path fill-rule="evenodd" d="M183.9,180.9l-2.6,0l0,3.7l2.6,0l0,-3.7Zm-0.1,-14.5l-2.5,0l0,3.6l2.5,0l0,-3.6Zm-2.3,11l2.4,0l0,-3.8l-2.4,0l0,3.8Zm5.3,7.2l2.6,0l0,-3.9l-2.6,0l0,3.9Zm2.6,-10.9l-2.6,0l0,3.7l2.6,0l0,-3.7Zm0,-7.3l-2.6,0l0,3.6l2.6,0l0,-3.6ZM229,182.9l2.8,0l0,-4.3l-2.8,0l0,4.3Zm-0.1,-16.7l2.9,0l0,-4.1l-2.9,0l0,4.1Zm0.1,8.3l2.8,0l0,-4.2l-2.8,0l0,4.2Zm-6.4,-8.3l2.9,0l0,-4.1l-2.9,0l0,4.1Zm0,8.3l2.9,0l0,-4.2l-2.9,0l0,4.2Zm0,8.4l2.9,0l0,-4.3l-2.9,0l0,4.3ZM203.3,163.5l-3.5,0l0,5.3l3.5,0l0,-5.3Zm0,-10.6l-3.5,0l0,5.4l3.5,0l0,-5.4Zm-3.5,21.3c0,1.6,-0.1,3.2,0,4.6c0,0.4,0.5,0.9,0.8,0.9c1.1,-0.3,2.4,0.6,2.7,-0.6c0.5,-1.6,0,-3.3,0,-4.9l-3.5,0Zm11.8,0l-3.8,0l0,5.3l3.8,0l0,-5.3Zm-3.8,-5.4l3.8,0l0,-5.3l-3.8,0l0,5.3Zm0,-10.5l3.8,0l0,-5.4l-3.8,0l0,5.4Zm9,-10.9l0,46.5l2.1,0l0,-36.2l17,0l0,36.2l2.6,0l0,-4.1c4.1,0.9,8.1,1.9,12.1,2.9c-5.1,16.1,-21.1,31,-42.4,31.4C185.8,224.6,169,209.5,163.6,192.7c4,-1.1,8.1,-2,12.4,-3.1l0,4.3l2.3,0l0,-31.2l14.7,0l0,31.2l2.1,0l0,-46.5l21.7,0Z" class="g6_6" />
<g clip-path="url(#c5_6)">
<path fill-rule="evenodd" d="M350.8,1464.7c-29.2,0,-52.9,23.7,-52.9,52.8c0,29.2,23.7,52.9,52.9,52.9c29,0,52.7,-23.7,52.7,-52.9c0,-29.1,-23.7,-52.8,-52.7,-52.8Zm0,114c-33.8,0,-61.1,-27.5,-61.1,-61.2c0,-33.7,27.3,-61.1,61.1,-61.1c33.6,0,61.1,27.4,61.1,61.1c0,33.7,-27.5,61.2,-61.1,61.2Z" class="g7_6" />
</g>
<path fill-rule="evenodd" d="M350.9,1543.5c-2.6,4.4,-2.6,6,-0.1,8c3.2,-2.6,0.4,-5.2,0.1,-8Zm-25.5,-24c4.8,2.8,6.7,6.8,7,11.8c0.5,4.1,3.1,5.3,6.5,3c0.6,-0.4,1.2,-0.9,2.1,-1.3c1.8,3.2,3.5,6.2,5.2,9.4c0.3,0,0.6,0,0.9,-0.1c-0.1,-2.3,-0.3,-4.6,-0.4,-6.7l7.9,0l0,6.8c0.1,0,0.5,0,0.8,0.2c1.5,-3.2,3.2,-6.3,5,-9.6c0.8,0.4,1.4,0.7,2,1.3c3,2.2,6.1,0.8,6.4,-2.9c0.3,-5.3,2.5,-9.3,7.3,-12c2.3,3.8,4.5,7.8,6.8,12c2.4,-4.2,4.5,-7.9,6.7,-11.7c5.3,2.6,8.8,9.9,7.2,15.1c-0.3,0.9,-1.3,1.7,-2.2,2.3c-7.2,4.4,-14.5,4.9,-21.8,1.1c-2.3,-1.3,-3.7,-1.1,-4.9,0.1c0.8,4.3,1.5,8.4,1.8,12.4c0.2,1.1,-0.6,2.6,-1.4,3.4c-9.9,7.3,-25.6,7.3,-35.2,0c-1,-0.8,-1.6,-2.2,-1.6,-3.3c0.5,-3.9,1.1,-7.7,1.9,-12.3c-1.1,-1.1,-2.6,-1.6,-5.1,-0.3c-7.5,3.9,-14.8,3.3,-22,-1.3c-1.4,-1,-2,-2.2,-2,-4.1c0.2,-5.8,2.2,-10.4,7.7,-13.4c2,3.8,4.1,7.6,6.5,12c2.5,-4.1,4.6,-7.9,6.9,-11.9Z" class="g7_6" />
<path fill-rule="evenodd" d="M361.9,1522.7c0,6.3,-4.9,11.3,-11,11.3c-6.7,0,-11.6,-4.8,-11.6,-11.9c0,-5.5,5.4,-10.4,11.3,-10.5c6.3,0,11.2,4.9,11.3,11.1Z" class="g7_6" />
<path fill-rule="evenodd" d="M310.1,1511.7c0.2,-5,3.6,-8.7,8.4,-8.5c4.9,0,8.3,3.5,8.3,8.4c-0.2,5.6,-4,10.4,-8.6,10.2c-4.2,-0.1,-8.1,-5,-8.1,-10.1Z" class="g7_6" />
<path fill-rule="evenodd" d="M374.6,1511.6c0.2,-5.4,3.7,-8.7,8.7,-8.6c4.8,0.3,8,4.2,7.8,9.2c-0.3,5.2,-4.4,9.8,-8.7,9.6c-4.3,-0.1,-8.1,-5.2,-7.8,-10.2Z" class="g7_6" />
<path fill-rule="evenodd" d="M349.7,1484.8l0,8.8l-11.8,0c0.5,-2.8,1,-5.2,1.4,-7.7c0,-0.4,0.8,-1.1,1.2,-1.1c3.1,0,6,0,9.2,0Z" class="g7_6" />
<path fill-rule="evenodd" d="M349.6,1505c-3.1,0,-6,0.2,-8.9,0c-0.5,0,-1.4,-0.7,-1.5,-1.4c-0.5,-2.3,-0.8,-4.5,-1.3,-7.3l11.7,0l0,8.7Z" class="g7_6" />
<path fill-rule="evenodd" d="M352.6,1505l0,-8.7l10.6,0c-0.4,3.1,-0.8,5.8,-1.1,8.7l-9.5,0Z" class="g7_6" />
<path fill-rule="evenodd" d="M363.3,1493.6l-10.5,0l0,-8.6c2.6,0,5.3,-0.2,7.9,0.2c0.6,0,1.4,0.7,1.5,1.2c0.3,2.3,0.6,4.6,1.1,7.2Z" class="g7_6" />
<path fill-rule="evenodd" d="M335.3,1493.6l-7.3,0c-0.6,-6.8,1.5,-9.1,8.6,-8.8c-0.3,1.4,-0.5,2.8,-0.6,4.2c-0.2,1.3,-0.5,2.9,-0.7,4.6Z" class="g7_6" />
<path fill-rule="evenodd" d="M373.4,1496.3c0.1,7.5,-1.8,9.6,-8.6,8.6c0.2,-1.4,0.3,-2.8,0.6,-4.3c0.2,-1.2,0.3,-2.6,0.7,-4.3l7.3,0Z" class="g7_6" />
<path fill-rule="evenodd" d="M349.6,1473.2l0,8.9l-8.8,0c0.8,-6.3,3.9,-9.5,8.8,-8.9Z" class="g7_6" />
<path fill-rule="evenodd" d="M335.3,1496.3c0.5,2.9,0.8,5.7,1.3,8.4c-6.4,1.4,-8.6,-0.6,-8.7,-8.4l7.4,0Z" class="g7_6" />
<path fill-rule="evenodd" d="M364.8,1485.3c6.8,-1.1,8.9,0.9,8.6,8.3l-7.3,0c-0.5,-2.8,-0.8,-5.5,-1.3,-8.3Z" class="g7_6" />
<path fill-rule="evenodd" d="M361.2,1482.3l-8.4,0l0,-9.1c2.6,-0.3,4.7,0.3,5.8,3.2c0.6,1.9,1.7,3.7,2.6,5.9Z" class="g7_6" />
<path fill-rule="evenodd" d="M340.4,1475.5c-0.8,1.9,-1.4,3.8,-2.5,5.5c-0.3,0.6,-1.3,1.1,-2.2,1.3c-1,0.1,-2.2,0,-3.3,0c-0.1,-0.2,-0.3,-0.5,-0.4,-0.7c2.6,-2.3,5.2,-4.4,7.8,-6.5c0.3,0.1,0.4,0.3,0.6,0.4Z" class="g7_6" />
<path fill-rule="evenodd" d="M369.4,1481.5c-5,1.4,-5,1.4,-7.9,-6.3c2.6,2,5.3,4.1,7.9,6.3Z" class="g7_6" />
<path fill-rule="evenodd" d="M369.3,1508.4c-1.7,1.5,-3.4,3.2,-5.4,4.6c-0.3,0.3,-1.5,0,-1.7,-0.5c-0.7,-1.4,1.7,-4.7,3.4,-4.7c1.1,-0.2,2.1,-0.2,3.2,-0.2c0.2,0.3,0.3,0.5,0.5,0.8Z" class="g7_6" />
<path fill-rule="evenodd" d="M331.7,1508.1c5.5,-0.9,6.2,-0.6,7.2,3.2c0.1,0.4,0,1.2,-0.3,1.7c0,0.1,-1,0,-1.3,-0.2c-1.8,-1.5,-3.5,-3,-5.6,-4.7Z" class="g7_6" />
<path fill-rule="evenodd" d="M360.9,1507.9c-0.5,0.9,-0.6,1.5,-1,2.3c-1.6,-0.8,-3.2,-1.4,-5.2,-2.3l6.2,0Z" class="g7_6" />
<path fill-rule="evenodd" d="M340.2,1507.8l6.3,0c-1.8,0.7,-3.4,1.5,-4.9,2.3c-0.4,-0.7,-0.8,-1.3,-1.4,-2.3Z" class="g7_6" />
<path fill-rule="evenodd" d="M573.5,1529.3c-2.3,-1.7,-4.9,-2.7,-7.5,-4c-1.9,-0.9,-3.9,-1.8,-6.1,-2.9c-2.6,5.2,-4.9,10.3,-7.5,15.5c-0.3,-0.5,-0.6,-1,-0.7,-1.6c-0.9,-2.6,-1.9,-5,-2.8,-7.8c-0.3,-0.6,-0.4,-0.6,-1,-0.4c-1.1,0,-2,0,-3.1,0c-0.6,-0.2,-0.9,0,-1.1,0.6c-1,2.9,-2.1,5.8,-3.2,8.6c-0.1,0.3,-0.3,0.6,-0.6,1.2c-2.4,-5.4,-5,-10.6,-7.5,-15.8c-1.3,0.5,-2.6,1.1,-3.6,1.6c-2.9,1.3,-5.8,2.6,-8.4,4.1c-3.7,2.3,-6.3,5.2,-7.5,8.9c-0.2,5.6,-0.3,11.3,-0.5,16.8l33.9,0l33.6,0c0.2,-4.3,0.3,-8.6,0.3,-12.9c0,-0.1,0,-0.3,0.2,-0.4c-0.5,-4.9,-2.7,-8.6,-6.9,-11.5Z" class="g8_6" />
<path fill-rule="evenodd" d="M528.8,1496.8c0.3,-0.8,0.3,-1.3,0.4,-1.7c1.2,-6.3,5.1,-10.3,11.2,-11.9c4.7,-1.4,9.4,-1.3,14,0.7c4.8,2,7.5,5.5,8.9,10.3c0.1,0.7,0.3,1.6,0.5,2.3c0.7,-0.3,1.2,-1,1.6,-1.1c0.9,-0.3,0.9,-0.8,0.8,-1.5c-1.5,-6.1,-4.9,-10.9,-10.5,-13.8c-11.4,-5.9,-25.1,0,-28.8,12.1c-0.7,2.3,-0.7,2.3,1.1,3.6c0.2,0.2,0.5,0.5,0.8,1Zm34.3,8.7c-1,3.8,-2.7,7.5,-5.3,10.5c-3.4,4.1,-7.3,6.9,-13,6.3c-4.3,-0.5,-7.3,-3.1,-10.1,-6.3c-2.6,-3,-4.1,-6.6,-5.2,-10.4c0,0,-0.1,-0.1,-0.1,-0.4c-0.3,1.5,-0.6,3,-2.3,3.6c-0.2,0.2,-0.2,0.6,0,1c1.4,4.2,4.1,7.7,7.9,10.3c0.3,0.3,0.9,0.3,1.4,0.3c1.4,-0.1,2.4,0.7,3.4,1.9c0.7,1.4,0,2.7,-1.6,2.9c-1.3,0.1,-2.7,-0.3,-3.3,-1.5c-0.6,-1.6,-2,-2.3,-3.1,-3.3c-3.2,-2.6,-5.5,-5.9,-6.9,-9.7c-0.3,-0.9,-0.6,-1.9,-1.3,-2.5c-0.8,-0.6,-1.3,-1.7,-1.3,-2.7c-0.1,-2.3,-0.1,-4.6,0,-6.9c0,-0.8,0.5,-1.7,0.8,-2.4c0.3,-0.8,0.8,-1.4,0.9,-2.2c1.7,-9.3,9.7,-16.9,19,-18.2c8.5,-1,15.6,1.9,21.1,8.4c2.2,2.9,3.8,6.3,4.4,10.1c0.1,0.6,0.4,1.2,0.8,1.7c0.4,0.8,0.9,1.4,0.9,2.1c0.1,2.6,0.3,5.2,0,7.8c-0.2,2.8,-3.2,4.2,-5.4,2.5c-0.7,-0.8,-1.2,-1.9,-1.7,-2.9Z" class="g8_6" />
<g clip-path="url(#c6_6)">
<path fill-rule="evenodd" d="M548.2,1465.9c-30,0,-54.4,24.4,-54.4,54.2c0,30.1,24.4,54.4,54.4,54.4c29.9,0,54.4,-24.3,54.4,-54.4c0,-29.8,-24.5,-54.2,-54.4,-54.2Zm0,117.2c-34.7,0,-62.8,-28.3,-62.8,-63c0,-34.6,28.1,-62.6,62.8,-62.6c34.6,0,62.8,28,62.8,62.6c0,34.7,-28.2,63,-62.8,63Z" class="g8_6" />
</g>
</svg>