<?xml version="1.0" encoding="UTF-8" standalone="no"?>
<!DOCTYPE svg PUBLIC "-//W3C//DTD SVG 1.1//EN"
"http://www.w3.org/Graphics/SVG/1.1/DTD/svg11.dtd">
<svg version="1.1" xmlns="http://www.w3.org/2000/svg" xmlns:xlink="http://www.w3.org/1999/xlink">
<defs>
<clipPath id="c0_13"><path d="M148.5,236.5l0,-117l116,0l0,117Z" /></clipPath>
<style type="text/css"><![CDATA[
.g4_13{
fill: #31909D;
}
.g1_13{
fill: #FFFFFF;
}
.g3_13{
fill: none;
stroke: #D9D9D9;
stroke-width: 4;
stroke-linecap: butt;
stroke-linejoin: round;
}
.g2_13{
fill: none;
stroke: #BFBFBF;
stroke-width: 2;
stroke-linecap: butt;
stroke-linejoin: round;
}
]]></style>
</defs>
<path fill-rule="evenodd" d="M0,0L2933,0l0,1650L0,1650L0,0Z" class="g1_13" />
<path fill-rule="evenodd" d="M0,0L2933,0l0,1650L0,1650L0,0Z" class="g1_13" />
<image x="0" y="0" width="2934" height="1650" xlink:href="img/1.png" />
<path d="M115,902l441,0l0,435l-441,0l0,-435Z" class="g2_13" />
<path d="M335,1337l0,209l1251,0l0,-425l155,0" class="g3_13" />
<path d="M264,177l194,0l0,725" class="g3_13" />
<g clip-path="url(#c0_13)">
<path fill-rule="evenodd" d="M207.2,127.3c-28.1,0,-50.9,22.7,-50.9,50.5c0,28.1,22.8,50.9,50.9,50.9c27.9,0,50.5,-22.8,50.5,-50.9c0,-27.8,-22.6,-50.5,-50.5,-50.5Zm0,109.4c-32.6,0,-58.9,-26.3,-58.9,-58.9c0,-32.4,26.3,-58.5,58.9,-58.5c32.4,0,58.6,26.1,58.6,58.5c0,32.6,-26.2,58.9,-58.6,58.9Z" class="g4_13" />
</g>
<path fill-rule="evenodd" d="M183.9,180.9l-2.6,0l0,3.7l2.6,0l0,-3.7Zm-0.1,-14.5l-2.5,0l0,3.6l2.5,0l0,-3.6Zm-2.3,11l2.4,0l0,-3.8l-2.4,0l0,3.8Zm5.3,7.2l2.6,0l0,-3.9l-2.6,0l0,3.9Zm2.6,-10.9l-2.6,0l0,3.7l2.6,0l0,-3.7Zm0,-7.3l-2.6,0l0,3.6l2.6,0l0,-3.6ZM229,182.9l2.8,0l0,-4.3l-2.8,0l0,4.3Zm-0.1,-16.7l2.9,0l0,-4.1l-2.9,0l0,4.1Zm0.1,8.3l2.8,0l0,-4.2l-2.8,0l0,4.2Zm-6.4,-8.3l2.9,0l0,-4.1l-2.9,0l0,4.1Zm0,8.3l2.9,0l0,-4.2l-2.9,0l0,4.2Zm0,8.4l2.9,0l0,-4.3l-2.9,0l0,4.3ZM203.3,163.5l-3.5,0l0,5.3l3.5,0l0,-5.3Zm0,-10.6l-3.5,0l0,5.4l3.5,0l0,-5.4Zm-3.5,21.3c0,1.6,-0.1,3.2,0,4.6c0,0.4,0.5,0.9,0.8,0.9c1.1,-0.3,2.4,0.6,2.7,-0.6c0.5,-1.6,0,-3.3,0,-4.9l-3.5,0Zm11.8,0l-3.8,0l0,5.3l3.8,0l0,-5.3Zm-3.8,-5.4l3.8,0l0,-5.3l-3.8,0l0,5.3Zm0,-10.5l3.8,0l0,-5.4l-3.8,0l0,5.4Zm9,-10.9l0,46.5l2.1,0l0,-36.2l17,0l0,36.2l2.6,0l0,-4.1c4.1,0.9,8.1,1.9,12.1,2.9c-5.1,16.1,-21.1,31,-42.4,31.4C185.8,224.6,169,209.5,163.6,192.7c4,-1.1,8.1,-2,12.4,-3.1l0,4.3l2.3,0l0,-31.2l14.7,0l0,31.2l2.1,0l0,-46.5l21.7,0Z" class="g4_13" />
</svg>