<?xml version="1.0" encoding="UTF-8" standalone="no"?>
<!DOCTYPE svg PUBLIC "-//W3C//DTD SVG 1.1//EN"
"http://www.w3.org/Graphics/SVG/1.1/DTD/svg11.dtd">
<svg version="1.1" xmlns="http://www.w3.org/2000/svg" xmlns:xlink="http://www.w3.org/1999/xlink">
<defs>
<clipPath id="c0_5"><path d="M1643.5,732.5l0,-175l175,0l0,175Z" /></clipPath>
<clipPath id="c1_5"><path d="M929.5,723.5l0,-175l175,0l0,175Z" /></clipPath>
<style type="text/css"><![CDATA[
.g4_5{
fill: #31909D;
}
.g1_5{
fill: #FFFFFF;
}
.g3_5{
fill: none;
stroke: #BFBFBF;
stroke-width: 2;
stroke-linecap: butt;
stroke-linejoin: round;
}
.g2_5{
fill: none;
stroke: #D9D9D9;
stroke-width: 4;
stroke-linecap: butt;
stroke-linejoin: round;
}
]]></style>
</defs>
<path fill-rule="evenodd" d="M0,0L2933,0l0,1650L0,1650L0,0Z" class="g1_5" />
<path fill-rule="evenodd" d="M0,0L2933,0l0,1650L0,1650L0,0Z" class="g1_5" />
<image x="0" y="0" width="2934" height="1651" xlink:href="img/1.png" />
<path d="M236,262l781,0l0,286" class="g2_5" />
<path d="M2729,1406l-999,0l0,-357" class="g2_5" />
<path d="M690,801l660,0l0,248l-660,0l0,-248Z" class="g3_5" />
<g clip-path="url(#c0_5)">
<path fill-rule="evenodd" d="M1730.8,568.8c-41.7,0,-75.6,33.9,-75.6,75.8c0,41.5,33.9,75.6,75.6,75.6c41.7,0,75.6,-34.1,75.6,-75.6c0,-41.9,-33.9,-75.8,-75.6,-75.8Zm0,163.2c-48.3,0,-87.5,-39.2,-87.5,-87.4c0,-48.5,39.2,-87.7,87.5,-87.7c48.3,0,87.6,39.2,87.6,87.7c0,48.2,-39.3,87.4,-87.6,87.4Z" class="g4_5" />
</g>
<path fill-rule="evenodd" d="M1731,610c8.1,0,16.3,0,24.4,0c6.3,0,9.9,3.7,9.9,10c0,16.3,0,32.7,0,48.9c0,6.2,-3.8,10,-9.9,10c-16.3,0,-32.8,0,-49.3,0c-5.8,0,-9.8,-3.9,-9.8,-9.7c0,-16.5,0,-32.9,0,-49.4c0,-5.9,3.8,-9.8,9.8,-9.8c8.4,-0.1,16.6,0,24.9,0Z" class="g4_5" />
<path fill-rule="evenodd" d="M1692.6,662.3l0,6.6c-4.7,0,-9.3,0.3,-13.9,-0.2c-0.9,0,-2.3,-2.1,-2.3,-3.2c0.3,-1.2,1.9,-3.1,2.9,-3.1c4.3,-0.3,8.7,-0.1,13.3,-0.1Z" class="g4_5" />
<path fill-rule="evenodd" d="M1769.3,669.2l0,-6.9c4.5,0,8.9,-0.2,13.3,0.1c1.1,0.2,2.5,2.2,2.6,3.4c0.3,2.1,-1.4,3.4,-3.4,3.4c-4.1,0,-8,0,-12.5,0Z" class="g4_5" />
<path fill-rule="evenodd" d="M1692.5,626.5c-4.5,0,-8.7,0.2,-13,0c-2,0,-3.1,-1.2,-3.2,-3.2c0,-2,1,-3.5,3,-3.5c4.5,-0.1,8.7,0,13.2,0l0,6.7Z" class="g4_5" />
<path fill-rule="evenodd" d="M1692.5,634l0,6.9c-4.3,0,-8.4,0,-12.7,-0.1c-2.1,0,-3.7,-1.3,-3.4,-3.6c0,-2.1,1.4,-3.2,3.5,-3.2c4.2,-0.1,8.3,0,12.6,0Z" class="g4_5" />
<path fill-rule="evenodd" d="M1692.3,655c-4.1,0,-8.1,0.1,-12,0c-2.3,0,-4,-1,-3.9,-3.6c0,-2.2,1.6,-3.3,3.7,-3.3c4,0,7.9,0,12.2,0l0,6.9Z" class="g4_5" />
<path fill-rule="evenodd" d="M1706.1,682.8l6.8,0c0,4.5,0.2,9,-0.1,13.4c-0.2,1.1,-2.1,2.5,-3.4,2.8c-2,0.1,-3.3,-1.6,-3.3,-3.6c-0.2,-4.1,0,-8.4,0,-12.6Z" class="g4_5" />
<path fill-rule="evenodd" d="M1748.7,682.8l6.9,0c0,4.4,0.1,8.7,0,13.1c-0.2,1.8,-1.6,3.1,-3.5,3.1c-1.9,0,-3.3,-1.1,-3.4,-3.1c0,-4.4,0,-8.7,0,-13.1Z" class="g4_5" />
<path fill-rule="evenodd" d="M1727.2,682.8c0,4.4,0,8.7,0,13.1c-0.2,2,-1.6,3.1,-3.4,3.1c-2,0,-3.4,-1.3,-3.4,-3.1c-0.3,-4.4,-0.1,-8.7,-0.1,-13.1l6.9,0Z" class="g4_5" />
<path fill-rule="evenodd" d="M1734.5,682.8l6.9,0c0,4.4,0.1,8.8,0,13.3c-0.2,1.8,-1.7,3,-3.6,2.9c-1.9,0,-3.3,-1.3,-3.3,-3.2c0,-4.3,0,-8.6,0,-13Z" class="g4_5" />
<path fill-rule="evenodd" d="M1712.9,606.1l-6.8,0c0,-4.5,0,-8.9,0.1,-13.3c0.2,-1.9,1.6,-2.9,3.5,-2.8c2.2,0,3.2,1.3,3.2,3.2c0.2,4.2,0,8.4,0,12.9Z" class="g4_5" />
<path fill-rule="evenodd" d="M1727.2,606.1l-6.9,0c0,-4.5,-0.2,-8.9,0.1,-13.3c0,-1.9,1.6,-2.9,3.5,-2.8c2,0,3.3,1.3,3.3,3.2c0,4.2,0,8.3,0,12.9Z" class="g4_5" />
<path fill-rule="evenodd" d="M1755.6,606.1l-6.9,0c0,-4.5,-0.2,-9,0.3,-13.5c0,-1,2.1,-2.4,3.4,-2.6c1.9,-0.1,3.2,1.4,3.2,3.5c0.1,4.2,0,8.1,0,12.6Z" class="g4_5" />
<path fill-rule="evenodd" d="M1769.3,626.5l0,-6.7c4.5,0,8.7,-0.3,13.2,0.2c1,0,2.6,1.8,2.7,3c0.5,1.9,-0.8,3.5,-2.7,3.5c-4.5,0.2,-8.7,0,-13.2,0Z" class="g4_5" />
<path fill-rule="evenodd" d="M1734.5,606.1c0,-4.5,0,-8.7,0,-12.9c0.1,-1.9,1.4,-3.2,3.3,-3.2c2,-0.1,3.4,0.9,3.6,2.9c0.1,4.3,0,8.7,0,13.2l-6.9,0Z" class="g4_5" />
<path fill-rule="evenodd" d="M1769.3,655l0,-6.8c4.5,0,8.7,-0.3,13.2,0c1,0.2,2.6,2,2.7,3.2c0.5,2,-1.1,3.4,-3,3.6c-4.3,0.1,-8.4,0,-12.9,0Z" class="g4_5" />
<path fill-rule="evenodd" d="M1769.3,640.8l0,-6.8c4.5,0,8.7,-0.3,13.2,0.2c1,0,2.6,1.8,2.7,3c0.5,2,-1.1,3.6,-3,3.6c-4.3,0.1,-8.4,0,-12.9,0Z" class="g4_5" />
<g clip-path="url(#c1_5)">
<path fill-rule="evenodd" d="M1017.5,560.2c-41.7,0,-75.6,34,-75.6,75.8c0,41.7,33.9,75.6,75.6,75.6c41.9,0,75.6,-33.9,75.6,-75.6c0,-41.8,-33.7,-75.8,-75.6,-75.8Zm0,163.4C969.2,723.6,930,684.3,930,636c0,-48.3,39.2,-87.5,87.5,-87.5c48.3,0,87.5,39.2,87.5,87.5c0,48.3,-39.2,87.6,-87.5,87.6Z" class="g4_5" />
</g>
<path fill-rule="evenodd" d="M1017.7,654c-13.5,-5.3,-26.8,-10.7,-40.5,-16.2c0,10,0.1,19.1,0,28.5c0,2,0.7,2.7,2.4,3.3c10.2,4.2,20.6,8.3,31,12.4c2.3,0.9,4.5,1.8,7.1,2.8l0,-30.8Zm31.7,-35.2c-0.1,-0.2,-0.3,-0.2,-0.6,-0.4c0,-1.5,0,-3.2,-0.3,-4.7c-3,-18,-18.3,-29.3,-36.3,-26.4c-20.2,3.3,-31.8,24.7,-23,44.3c0.5,1.1,1.7,2.3,2.8,2.7c7.9,3.2,16,6.5,24.1,9.7c0.8,0.3,2,0.3,2.9,0c8.1,-3.2,16.4,-6.5,24.5,-10c1,-0.3,2.3,-1.3,2.6,-2.3c1.2,-4.2,2.3,-8.7,3.3,-12.9Zm-31.1,75.1l-1.6,0C1002.2,688.1,987.6,682.3,973,676.3c-3.9,-1.5,-4.5,-2.4,-4.5,-6.8c0,-10.9,0,-21.6,0,-32.3c0,-10,-0.2,-8.2,7.3,-11.9c1.5,-0.7,2.1,-1.5,1.8,-3.3c-1.3,-17.6,7.5,-33.2,23.2,-40.4c4.3,-1.8,8.9,-2.4,13.3,-3.6l6.8,0c0.4,0.1,0.9,0.3,1.3,0.3c21,2.7,35.9,20.1,35.2,41.1c-0.2,3.8,0.6,6.1,4.4,7.1c3.8,1.1,4.9,3.9,4.7,7.7c0,11.7,0,23.5,0,35.3c0,4.6,-0.4,5.3,-4.5,6.8c-14.6,6,-29.2,11.8,-43.7,17.6Z" class="g4_5" />
<path fill-rule="evenodd" d="M1017.5,623.9c3.2,0,6,-2.7,6,-5.9c-0.2,-3.1,-2.8,-5.7,-5.8,-5.8c-3.3,0,-6.2,2.6,-6.2,5.8c0,3.2,2.8,5.9,6,5.9Zm-0.2,11.8c-9.7,0,-17.5,-7.9,-17.5,-17.7c0,-9.8,7.9,-17.7,17.7,-17.7c9.8,0,17.9,8.1,17.7,18c0,9.8,-7.9,17.6,-17.9,17.4Z" class="g4_5" />
<path d="M1400,805l660,0l0,248l-660,0l0,-248Z" class="g3_5" />
</svg>